<svg xmlns="http://www.w3.org/2000/svg" version="1.0" width="1200" height="1063" viewBox="0 0 12e3 10630"><g id="layer101" fill="#fff" stroke="none"><path d="M5770 10624c-170-11-392-42-549-75-399-87-959-320-1344-561-202-127-317-218-483-383-131-131-188-198-280-330-29-42-107-185-103-189 2-1 33-10 69-20 82-22 164-63 263-134l78-56-79-80c-246-253-472-556-619-831-66-124-39-107-225-139-105-18-189-56-222-99-24-33-102-210-183-417-45-113-45-116-41-215 3-87 8-109 35-167 42-90 84-151 151-220l56-57-12-153c-15-188-15-455-2-625 11-131 35-326 46-370 6-24 5-25-27-18-19 3-70 17-114 30-113 33-267 71-355 86-115 21-359 18-448-5-74-19-74-19-128-92-119-161-225-407-227-529-1-51 5-72 37-136 61-121 126-2e2 346-419 217-216 310-317 323-353 20-51 1-117-74-264-73-143-74-146-74-222 0-69 3-82 28-119 36-51 99-82 169-82 95 0 111 12 161 119 25 53 62 139 83 191 20 52 50 121 66 154l30 59 196-7c108-3 319-9 468-12l272-7 77-94c2e2-242 455-478 715-660 434-305 914-512 1431-617 251-51 351-60 704-60 396-1 486 9 835 85 805 178 1560 636 2052 1245l81 101 311 8c171 5 383 9 471 9l160 1 32-61c17-34 52-114 77-178 25-65 62-148 81-185 32-64 37-69 80-81 89-25 216 26 271 110l27 41-18 57c-9 31-40 104-68 162-67 141-107 239-107 262 0 58 141 221 379 437 175 159 294 329 335 477 13 49 14 68 5 90-6 16-30 84-54 151-83 234-165 357-272 409-129 64-429 40-819-66-82-22-150-40-153-40-4 0 0 40 25 215 14 97 18 2e2 18 541l1 420 78 94c43 51 89 114 101 139 56 110 69 222 40 335-14 56-96 258-114 281-4 6-19 43-34 83-35 99-49 124-90 159-47 42-131 71-259 91l-108 16-51 95c-155 288-374 586-604 821l-93 95 22 23c68 74 225 160 330 182 31 6 57 13 57 15 0 16-48 121-78 170-151 252-527 580-942 822-497 289-1005 459-1585 529-116 14-523 26-635 18zm461-54c382-29 711-95 1014-205 55-20 123-44 150-54 190-69 489-226 715-376 220-147 350-254 550-455 178-177 215-228 235-317 9-45-4-41-44 12-78 104-340 368-471 476-43 35-8-5 105-122 94-96 194-205 223-244 47-63 112-173 112-189 0-3-12-6-27-6-23 0-37 13-78 67-53 72-135 168-135 158 0-10 50-94 97-163 24-35 43-66 43-70 0-4-44-33-97-65-54-31-150-91-213-132l-115-74-49 47-48 47 31-62c17-34 31-67 31-71 0-12-109-97-115-90-3 2-23 33-45 67-66 103-147 199-252 303-409 403-998 643-1684 688-474 31-996-78-1454-303-348-172-617-404-8e2-689-23-38-46-68-49-68-3 0-29 20-57 43l-52 44 29 68c16 37 28 69 26 71-2 2-20-19-41-46-21-28-40-50-42-50-1 0-67 42-146 93-79 52-174 111-213 132-38 21-71 39-73 41-2 1 27 49 65 106 38 56 73 110 77 118 19 32-50-40-117-122-59-74-76-88-1e2-88h-28l31 58c73 137 236 321 450 505 146 126 153 135 45 58-153-108-298-250-591-580-22-24 4 69 32 117 29 48 279 317 381 408 340 305 772 548 1287 723 471 161 948 225 1407 191zm159-894c497-72 942-254 1289-528l81-63-40-37c-23-20-72-58-110-84l-70-48-88 46c-331 175-719 291-1107 334-74 8-88 14-147 72l-48 46-43-45c-51-53-71-59-207-59-197 0-554-55-760-116-214-64-406-140-572-226-67-35-101-48-110-42-127 93-198 149-198 155 0 25 277 215 432 297 339 180 668 272 1123 316 86 9 476-4 575-18zm-211-489c1-70-21-137-79-237-90-156-110-197-130-261-15-51-33-81-80-135-118-136-140-166-150-206-18-63 0-116 77-235 135-209 167-284 167-393 0-53-5-85-18-110-21-39-45-70-56-70-4 0-11 35-14 78-13 146-27 235-48 289-11 30-22 53-24 51-2-2 8-60 22-127 13-68 23-126 20-128-3-3-24 36-48 86-39 83-44 89-59 75-15-13-19-12-43 16-70 84-125 215-145 346-11 68-11 93 3 162 15 84 57 177 1e2 223 36 39 45 62 67 166 51 247 80 329 140 398 31 35 113 95 130 95 4 0 9-17 11-37 3-38 4-38 50-41 40-3 47-6 54-30 6-24 8-22 16 23 4 28 11 61 14 75 6 23 7 24 14 5 5-11 9-46 9-78zm-499-188c0-86-41-159-165-288-57-59-111-123-120-142-65-125-59-299 15-480 29-69 93-194 129-249l16-24-45 24c-222 122-320 451-221 750 33 102 49 129 152 261 37 46 78 107 93 134l27 50-4-67-3-68 23 15c79 51 73 41 74 124 1 73 1 75 14 46 8-16 14-55 15-86zm-1332-48c40-30 71-55 70-56-6-6-241-135-244-135-2 0-4 17-4 38 0 27-9 48-35 81-19 24-35 46-35 48 0 5 51-23 129-70l34-21-40 60c-56 84-59 89-42 79 8-5 25-16 39-25 14-9 43-27 65-40l40-23-37 39c-39 42-88 112-88 125 0 5 17-3 38-19 20-15 70-52 110-81zm1888 13c-36-114-56-217-55-282 1-65 3-61 19 63 14 99 49 220 81 275l20 35-5-95-5-95 19 72c10 40 25 83 32 95 12 21 13 18 16-37 2-44 6-56 13-45 8 11 9 0 5-37-15-122 24-256 144-501 102-208 120-272 103-356-25-118-114-241-266-368l-58-48-28 19-27 20-53-40c-29-22-51-37-49-32 2 4 24 51 49 103 58 117 69 164 69 279 0 104-9 133-85 266-116 201-145 280-145 390 1 71 23 141 71 220 34 56 148 190 156 182 2-2-8-40-21-83zm1575 69c-5-10-26-38-48-63-69-81-69-84 0-40 37 23 70 40 73 38 2-3-4-16-14-29-35-46-66-103-51-94 8 5 44 28 81 52 36 24 69 43 73 43 4 0-15-25-41-55-41-49-46-59-41-90 3-19 4-35 2-35-2 0-60 31-129 68l-125 68 62 46c59 43 157 108 164 108 2 0-1-8-6-17zm-2346-69c-20-36-70-114-110-173-118-172-165-284-165-391 0-50 45-236 91-375 65-196 173-363 276-426 64-40 25-31-54 11-302 164-5e2 392-560 645-8 34-13 97-12 147 2 48 0 90-4 94-3 3-18 4-32 0-23-6-25-11-25-59 0-154 57-322 163-483 52-79 52-80 34-98-30-30-67-40-139-37l-28 1v108c0 106-10 179-49 342-19 80-44 260-37 267 1 2 15-6 29-17 29-23 29-23 43 54l7 39 18-24c16-21 20-22 33-9 8 8 35 57 61 107 42 83 99 153 125 153 10 0 3-27-14-50-6-8 8 1 30 20 23 19 99 66 168 105 70 38 139 82 153 97 15 15 29 26 31 23 2-2-12-34-33-71zm1147-74c4 0 9 14 13 31 6 28 9 30 38 23 93-19 233-113 295-196 85-114 116-204 115-338 0-103-10-150-50-250-51-124-104-2e2-223-320-103-104-165-152-294-230l-40-24 55 80c121 174 179 312 181 429 2 75-16 129-103 315-96 203-126 295-136 421-6 84 4 104 38 73 18-16 19-16 30 15l11 33 32-31c18-17 35-31 38-31zm-2160-107c-34-52-77-97-104-106-14-5-15-2-6 24 9 27 127 143 136 134 3-2-9-26-26-52zm-78 20c-9-16-42-62-73-103-31-41-62-83-70-94-11-14 1-11 45 14l59 34-58-64c-162-179-261-392-276-593l-6-92-34 85c-29 72-34 98-35 171-1 77-3 85-17 76-9-6-24-7-33-4-22 9-54 82-62 139l-6 43-56-55c-32-31-109-85-175-124-65-38-120-73-123-78-13-21-21-4-17 40 15 161 49 358 79 462 8 30 18 65 21 78 6 24 8 24 79 0l31-11-22-76c-21-74-39-161-32-161 2 0 19 38 37 85 19 46 43 95 53 107 18 23 18 23 13-32-4-30-9-75-11-1e2l-5-45 20 53c20 56 59 126 66 119 2-2 0-28-6-57-17-92-13-1e2 23-42 18 29 36 49 40 46 4-4 7-32 8-63l1-56 19 43c18 38 23 42 54 42 19 0 35-4 35-8 0-5-9-35-20-67-22-64-20-84 4-38 22 43 93 131 115 142 18 10 18 9-1-41-11-29-23-59-28-69-15-26-50-119-46-119 2 0 28 43 57 97 53 94 114 169 158 193l22 11-17-28c-10-15-35-51-55-78-39-55-89-147-89-166 0-15 20 11 111 146 64 95 214 265 235 265 3 0-2-12-12-27zm3487-231c60-80 109-141 109-136 0 16-51 107-90 159-20 28-43 61-50 74-12 23-10 22 28-8 48-37 84-82 137-168 21-35 39-63 41-63 2 0-6 24-17 53-34 84-49 130-46 134 8 8 97-98 127-151 51-89 50-75-4 53-15 35-26 65-24 67 2 2 20 5 39 6 31 3 36-1 54-37l20-40 5 65 5 65 43-80c27-52 41-69 37-50-16 89-24 149-21 153 4 3 27-33 70-113 9-17 15-21 12-10-3 11-8 52-12 90-8 90 4 80 56-46 45-107 48-101 20 36-25 121-25 127 1 90 42-63 108-204 138-299 30-92 58-252 47-263-3-3-20 6-38 19-18 14-74 48-124 77-103 59-164 107-204 163l-27 37-5-67c-4-53-16-93-58-187-29-66-63-154-76-195l-23-75v46c-1 68-39 204-81 294-61 127-148 251-317 446-46 53-83 1e2-83 103 0 4 12-1 28-12 15-10 38-25 51-32 23-12 23-11 19 26l-4 37 54-58c30-32 103-123 163-203zm-4378 198c-62-176-103-402-103-567 0-135-3-133 119-68l84 45-27-34c-14-19-77-106-139-193l-112-158-95 17c-192 35-295 48-372 48-43 0-78 3-78 7 0 33 308 516 373 586 7 7 30 34 52 62 66 82 156 175 234 242 41 35 76 62 77 60 2-1-4-23-13-47zm5205-105c185-192 339-4e2 499-675l73-125-112-6c-117-7-270-30-371-55-33-8-62-14-67-12-4 2-42 55-85 118-43 63-102 147-131 186-30 39-54 74-54 77 0 4 42-16 94-43l93-50 7 37c22 138-20 425-93 637-12 33-21 61-21 63 0 13 71-51 168-152zm-4555 87c15-14 27-29 27-34 0-21-93 39-111 73-10 20-10 20 23 3 18-9 45-28 61-42zm3841 46c-34-55-74-81-105-70-22 8-20 10 22 34 92 53 94 54 83 36zm526-133c6-31 10-59 7-61-8-8-36 43-57 105-26 78-25 82 9 44 19-20 33-51 41-88zm-4455 69 20-15-20-15c-18-14-22-13-37 7-10 12-18 25-18 30 0 14 33 10 55-7zm3964 3c12-16-3-40-31-50-13-5-18-1-18 12 0 47 25 66 49 38zm-2420-64c-10-31-19-58-19-61 0-3 19 20 43 51 23 31 45 57 49 57 4 0-10-28-31-62-79-132-110-245-111-399 0-121 22-225 70-328 17-35 28-66 26-68-2-3-29 28-59 69-220 294-219 626 3 773 19 13 38 24 42 24 4 1-2-24-13-56zm1563-134 26 21 6-40c9-55-9-164-49-3e2-42-139-65-247-66-303l-1-42-19 40-18 40-1-69c0-68 0-69-18-45-23 31-42 75-42 99 0 10 18 49 40 87 21 38 53 111 70 163 27 81 32 111 33 205 1 61-1 124-6 140-7 29-7 29 6 7l13-23 26 20zm-1187-173c23-141 24-146 19-63-3 42-3 77 0 77 10 0 111-147 147-214 56-103 70-151 71-236 0-104-27-193-46-145-9 25-26 17-26-12-1-27-2-26-22 12l-21 40-17-40-17-40-7 45c-11 69-36 117-124 231-95 126-117 165-133 236-18 78-1 122 74 2e2l61 63 13-31c7-17 20-72 28-123zm1375-164c60-167 33-329-63-373-23-10-56-19-74-19-29 0-33 4-40 38-13 58-6 261 11 317 14 50 14 50 16 15 2-19 6-87 10-150l7-115 1 97c2 119 18 239 39 291l16 40 24-29c12-16 36-66 53-112zm-2565 34c55-122 69-174 69-266 0-58-5-97-17-124-17-38-18-38-60-32-54 8-86 32-116 86-52 94-20 307 61 407 16 20 28 6 63-71zm-220-323c-7-67-7-68 12-50 28 25 33 22 33-22v-39l-72-22c-40-11-81-23-90-26-24-7-23 19 3 101 22 67 71 125 106 125 13 0 14-10 8-67zm2979-7c27-57 53-142 45-150-2-2-45 7-95 21l-92 26 10 34c5 19 18 54 28 79 17 38 23 44 49 44 26 0 33-7 55-54zm859 10c8-19-1-26-35-26-26 0-28 2-18 20 12 23 45 27 53 6zm-1415-50c6-31-14-40-36-15-12 12-19 26-16 31 10 16 49 4 52-16zm-1793-88c35-29 62-55 60-57-3-2-36 6-75 18-69 22-70 23-70 57 0 19 5 34 11 34 6 0 39-24 74-52zm1705 22c7-17 11-32 9-34-8-7-120-46-132-46-6 0 13 25 43 55 30 30 57 55 61 55 4 0 12-14 19-30zm-3965 10c154-12 221-24 374-66 314-88 616-260 827-473 93-94 132-159 141-233l6-53-98 103c-390 411-933 648-1444 629-144-5-3e2-30-391-62-24-8-45-13-47-11-9 8 71 88 111 110 54 30 183 52 381 64 11 1 74-3 140-8zm6603-28c88-20 132-47 181-111 23-31 24-34 6-29-289 81-472 96-720 58-482-73-917-320-1207-684l-79-1e2 6 55c8 66 60 179 111 238 58 67 229 210 340 283 234 156 537 272 799 307 117 16 466 5 563-17zm-969 12 32-7-73-43c-40-24-74-42-76-40-1 2 7 21 20 41l22 38-70-38c-38-21-80-45-94-53-17-11-12-2 17 29l41 44-21 17c-21 16-18 17 74 18 53 0 111-3 128-6zm-3559-34c210-43 342-155 366-310 4-25 18-65 33-90 58-102 226-318 358-460 17-19 30-36 27-39-2-2-39 13-82 35-99 50-217 162-367 349-240 298-325 352-723 465-45 13-79 27-75 31 15 14 180 37 273 38 58 0 132-7 190-19zm2425-3c33-7 55-15 50-19-6-3-64-21-130-39l-120-34 123-3c67-1 122-6 122-10 0-4-53-34-117-67-214-110-290-170-399-315-148-196-250-270-378-278l-68-4 53 68c237 306 387 453 557 550 42 24 74 44 71 44-24 0-136-48-194-83-90-54-235-194-338-324-44-57-82-103-85-103-3 0-10 6-16 14-9 12-21 6-71-40-33-30-63-54-68-54-4 0 15 43 44 96 28 52 49 97 46 1e2-3 3-38-37-77-90-40-53-74-96-76-96-7 0 121 261 164 334 58 97 171 220 245 264 66 40 174 78 277 97 88 17 291 13 385-8zm-4499-92c264-35 444-89 669-201 324-163 615-426 682-616 23-64 26-94 31-238l4-165-48 95c-118 230-324 433-616 606-228 135-345 184-608 252-186 49-251 57-450 57-188 0-285-13-376-51-18-8-36-14-39-14-13 0 9 47 42 92 112 154 390 226 709 183zm6502 0c178-27 310-90 371-178 28-41 55-97 48-97-2 0-40 11-84 24-78 23-161 38-288 51-165 17-558-65-817-170-318-130-546-291-752-530-44-51-119-166-163-251-37-73-42-79-48-56-12 47-6 236 9 293 37 138 89 221 220 353 309 311 703 501 1161 561 134 17 231 17 343 0zm-4664-21c182-47 345-182 603-499 67-82 136-167 153-188l32-38-51 20c-81 30-148 78-256 181-55 52-95 88-89 80 6-8 37-49 69-90 32-41 63-82 68-90 6-8-93 89-219 217-126 127-254 249-285 271-67 48-177 105-238 123-35 10-40 14-25 20 34 13 175 9 238-7zm-188-80 62-25 5-52c3-29 3-54 1-56-2-2-11 14-21 34l-18 38-5-68-5-67-98 106c-55 59-95 111-92 117 11 16 1e2 2 171-27zm3034 27c0-6-37-49-82-97-46-47-92-99-103-115-11-16-23-29-26-29-3 0-14 18-24 40-49 109 35 209 178 210 31 0 57-4 57-9zm65-211c0-118-49-206-136-246-25-11-46-29-55-48-13-29-14-24-9 64 6 111 24 184 59 243 36 63 51 73 69 47 14-20 15-20 21 11 3 17 6 43 6 58 1 24 2 23 23-14 17-31 22-57 22-115zm-3277 93c85-85 122-192 121-343l-1-95-15 60c-9 33-17 62-19 64-2 2-12-3-22-12-10-10-24-17-30-17-21 0-72 82-92 148-27 86-26 242 2 242 5 0 30-21 56-47zm1078-60c16-37 18-81 4-103-8-13-11-12-24 5-22 29-55 118-62 168l-5 42 37-40c20-22 43-54 50-72zm518-6c9-45 16-112 16-148 0-92-39-181-55-128-4 11-36 60-73 107-78 104-112 166-119 218l-5 39 110-3 110-3 16-82zm266 46c0-12-24-52-52-88-29-36-79-107-110-157l-58-91v134c0 74-3 157-6 186l-7 52 109 3c113 3 124 0 124-39zm-610-55c27 10 32 7 82-46 29-31 70-80 91-109 37-51 119-214 132-263l6-25-23 25c-13 14-33 39-46 55-22 29-22 29-18 5 18-95 17-97-6-104-44-12-162 137-291 372-31 56-57 104-57 106 0 2 23-3 50-11 37-11 58-12 80-5zm807-20c-13-24-43-78-66-121-77-144-231-347-262-347-20 0-89 54-89 69 0 28 97 209 155 291 82 113 96 124 153 122 26-1 63 5 82 12 52 20 53 20 27-26zm-3517-2c193-39 339-89 512-176 134-66 215-118 378-241 273-205 409-420 410-646 0-35 3-63 6-63 9 0 62 38 117 83 47 38 48 39 92 28 70-18 72-17 79 42 7 51 9 55 49 74 23 11 110 37 192 58 226 57 303 99 358 197l19 33-6-32c-19-104-19-1e2-1-78 31 37 46 86 52 172l6 86-26-18c-26-16-26-16-31 7-11 47-24 133-21 136 1 1 25-22 52-52 77-84 120-189 142-352l10-69-4 85c-3 72-27 192-51 253-4 12 15 6 67-21 98-51 146-68 254-91 122-26 235-34 325-22 41 5 76 8 78 7 1-2 6-39 11-82 5-44 9-65 10-48 0 17 4 51 7 75l6 44 137 1c107 2 157 7 236 26 55 14 109 29 119 33 18 8 19 5 13-56l-7-64 24 51c31 68 111 144 237 230 56 38 127 92 156 120 30 28 52 46 50 40-110-279-110-280-115-367-4-84-3-89 26-131 71-103 216-169 404-183 151-11 145-8 150-65 3-28 7-52 10-55 2-2 28 2 57 10 50 13 57 13 95-7 139-70 226-155 226-220 0-20-6-27-30-32-17-3-48-23-70-43-54-51-78-122-85-259-14-236-63-423-168-634l-62-125v-120c0-96 6-144 28-237 15-65 27-141 27-170 1-48 2-51 15-34 25 33 27 96 6 201-11 55-23 138-27 185-9 118 16 204 113 389 41 78 86 168 99 2e2 18 45 23 50 24 29 0-39-23-103-86-233-30-62-54-117-54-121 0-18 47 39 102 124 33 50 62 92 63 92 2 0-11-57-30-127-18-71-35-141-39-158l-6-30 15 25c8 14 31 68 52 120l38 94 7-44c43-282 49-363 50-615 1-243 2-255 14-190 26 140 15 503-22 758-4 26-4 47-2 47 10 0 58-144 79-235 30-131 38-424 14-583-40-275-145-622-241-793-103-185-3e2-374-549-529-38-23-106-69-150-101-137-99-3e2-163-510-2e2-230-40-771-35-980 10-2e2 43-411 152-664 341-226 169-303 237-368 329-337 468-458 1131-313 1708 31 124 80 267 106 312l15 26-6-25c-74-319-99-452-115-618-11-123-12-127-5-121 2 3 16 81 30 175 29 197 45 265 82 353 24 57 28 61 34 39 3-14 10-96 14-184 9-183 21-175 32 19 3 64 9 117 13 117 3 0 16-28 27-62l22-63-6 70-6 70 32-30c48-45 89-124 112-216 18-70 21-104 17-221-2-76-1-133 4-126 24 37 48 146 48 216 0 131-41 248-158 455-46 80-58 143-68 337-11 240-55 346-169 406-16 9-31 18-33 19-2 2 6 21 17 44 19 37 28 91 16 91-3 0-29-18-58-40-60-45-137-81-217-101-71-18-322-18-415 0-166 32-355 89-355 108 0 22 123 293 174 383l45 81-23 38c-27 42-70 77-136 111-55 29-204 40-232 18-9-7-39-71-66-143-51-133-130-326-136-333-8-7-125 59-211 119-97 69-331 296-384 372-50 73-73 149-74 242 0 118 38 191 123 235 31 15 132 40 225 54 67 10 412-2 485-18zm6742 0c140-28 209-101 232-246 7-42-16-155-40-202-80-155-374-427-567-524l-67-34-10 22c-76 181-142 346-159 4e2-21 63-25 68-58 74-102 19-259-44-324-130l-37-49 82-161c73-145 145-321 135-331-15-14-257-68-382-84-103-14-352-14-419 0-181 39-323 209-288 347 10 41 94 177 152 249 53 64 198 209 263 263 276 227 662 387 1020 424 78 8 401-4 467-18zm-4836-144c-9-33-23-75-31-93l-15-34 6 45c3 25 16 81 27 125 18 64 23 74 25 49 2-18-4-59-12-92zm2304 70c10-38 14-89 5-81-2 3-11 33-19 67-15 66-4 77 14 14zm280-362c11-58 22-116 25-130 3-14-6 4-20 39-34 85-55 199-54 291l1 75 14-85c8-47 23-132 34-190zm256 94c-17-82-52-168-85-210l-20-25-15 30c-21 40-20 74 3 122 21 42 122 172 129 165 2-3-3-39-12-82zm-2598-71c2-40 2-73-1-73-12 0-37 111-36 162l1 53 15-35c9-19 18-68 21-107zm1399 59c-61-63-257-170-257-141 0 27 45 81 87 106 34 20 165 67 203 72 2 1-13-16-33-37zm1171-360c4-97-8-116-81-122-46-4-57-2-57 10 1 25 38 99 76 152 45 61 57 53 62-40zm-4995-292c48-29 87-54 87-56 0-2-41-99-91-216-88-205-183-404-237-497-32-55-34-51-58 135-14 108-18 209-18 454 0 173 4 332 8 352l7 38 107-78c59-43 146-102 195-132zm7004-104c5-258-7-470-36-656l-7-45-32 50c-49 74-151 286-242 499-44 104-80 193-80 197 0 4 28 25 63 45 63 38 184 120 267 180 38 28 46 30 54 17 4-8 11-137 13-287zm-469-779c41-87 70-199 54-205-7-2-63-34-125-71-61-37-122-73-134-80l-22-11 15 47c20 63 111 427 119 477l7 40 27-65c16-35 42-94 59-132zm-6283 126c10-68 59-270 94-388 17-54 29-1e2 28-102-2-1-23 11-47 26-25 15-77 47-116 70-39 23-82 53-94 66-23 24-23 28-11 73 7 26 37 101 67 168 30 67 54 126 54 133 0 31 18-4 25-46zm-1240-54c496-37 950-203 1360-498 197-141 396-327 435-406 36-73 40-180 9-246-12-27-25-49-28-49-3 0-28 35-56 78-43 68-203 240-277 299-209 168-653 398-954 496-337 110-468 137-656 137-122 0-246-17-289-41-19-10-19-9-4 28 43 103 108 182 166 2e2 45 14 124 15 294 2zm8943-1c84-21 135-87 2e2-258 3-8-9-1-27 16-46 45-97 56-242 55-388-3-9e2-169-1348-438-358-216-528-369-606-549l-17-39-30 62c-35 74-46 154-28 209 23 68 279 316 466 451 398 286 871 457 1359 492 168 12 222 12 273-1zm-8997-242c520-79 1012-286 1445-608 126-94 185-148 244-226 83-111 107-201 74-280l-15-37-37 45c-67 83-246 261-337 334-3e2 243-642 417-1025 520-230 62-397 86-647 93l-201 6 25 38c72 110 240 150 474 115zm8999 4c47-5 112-17 146-26 59-15 61-17 84-67 13-29 25-55 27-58 2-3-85-9-194-12-183-6-291-18-440-47-604-118-1164-437-1543-878-53-62-54-63-67-40-17 32-16 128 3 174 42 102 174 244 330 356 202 144 551 340 7e2 391 54 19 119 42 144 51 229 83 447 140 590 155 121 12 126 12 220 1zm-8962-225c428-90 866-268 1177-478 152-103 345-280 435-4e2 57-77 66-137 25-185-36-43-97-77-170-95-66-17-168-28-162-18 95 177 114 283 65 376-22 41-168 179-283 266-273 208-605 351-938 404-140 22-383 23-430 0-63-30-116-121-141-240l-12-60-66 1e2c-62 94-98 173-98 213 0 9 9 36 20 60 14 31 29 47 54 57 97 41 331 41 524 0zm9174 19c21-4 54-21 75-39 37-32 38-34 38-101-1-56-7-80-29-124-37-71-105-162-116-155-4 3-17 35-29 72-31 1e2-74 169-121 193-34 17-59 20-185 20-456 0-908-174-1280-492-184-158-225-213-225-309 0-49 26-134 61-196 16-29 29-54 29-57 0-11-79-6-152 9-40 9-93 28-118 43-47 29-90 91-90 131 0 39 102 181 197 271 150 145 388 303 663 441 315 157 591 245 905 288 73 10 325 13 377 5zm-9056-179c95-17 153-33 364-1e2 172-55 448-199 604-314 91-67 195-187 232-265 66-140 58-143-62-19-60 61-147 141-192 177-316 249-767 422-1172 451-47 3-116 8-154 11-68 6-69 7-42 21 94 49 266 65 422 38zm8846-14c105-40 95-47-80-54-263-10-510-64-742-162-284-119-506-270-709-481l-104-108 5 42c10 69 49 132 143 227 149 152 266 236 472 339 218 108 407 168 683 216 93 15 266 6 332-19zm-8847-165c291-63 538-170 835-364 107-69 253-193 291-245 58-81 49-166-23-208-39-22-54-24-163-24-106 0-226 16-262 34-9 5-5 29 16 91 38 112 44 145 37 184-16 82-233 234-429 3e2-95 32-244 51-310 39-47-8-50-10-88-78-22-38-49-89-61-112-12-24-26-43-30-43-15 0-117 80-188 147-125 117-148 205-73 280l37 36 145-6c1e2-4 184-14 266-31zm8916-5c33-32 39-45 39-80 0-58-32-115-104-187-57-57-181-154-197-154-4 0-26 35-50 78-23 42-51 93-62 114-18 32-25 37-72 43-169 21-428-62-595-190-63-48-150-139-150-155 0-6 16-67 35-136 19-68 35-128 35-132 0-16-106-34-225-38-146-5-206 11-242 65-47 70-26 128 87 234 223 210 499 374 797 473 191 64 394 1e2 582 103l83 1 39-39zm-8689-246c172-36 363-156 451-284l31-46-64 51c-115 89-264 171-387 213-81 27-232 61-280 62-38 1-38 1-8 9 50 13 186 10 257-5zm8263 5 30-8-33-1c-39-1-149-25-247-53-106-30-279-119-383-197l-92-70 29 42c95 138 305 266 476 290 51 7 188 5 220-3zm-8343-74c40-14 92-31 115-40 78-29 268-124 311-156 52-39 95-108 90-148l-3-29-95 68c-109 78-262 157-388 199-88 29-223 60-263 60-22 0-22 0-3 21 48 53 127 61 236 25zm8367 5c20-11 43-26 50-34 10-13 4-16-41-22-211-27-485-144-661-282-32-25-61-42-64-39-9 9 17 87 39 119 34 48 102 92 242 156 255 118 357 141 435 102zm91-140c0-47-45-118-106-168l-42-34-6 74-7 74-62-9c-138-18-251-67-338-146l-53-49 53-49 53-49-48-6c-27-4-80-4-117-1-66 5-69 6-85 39-16 33-16 33 17 67 19 19 68 59 110 89 174 125 387 203 564 206l67 1v-39zm-8545 18c174-25 343-99 445-195 72-68 131-161 110-174-17-11-173-21-210-14l-31 7 46 47c47 48 47 48 30 72-67 88-222 163-362 175l-73 6v-67c0-36-3-66-8-66-4 0-31 20-59 45-61 54-115 151-92 166 19 12 117 11 204-2zm1756-154c183-216 420-432 635-578 50-34 158-125 240-201 335-312 590-482 858-571 134-45 238-61 496-76 608-35 924 29 1226 249 32 24 115 82 184 129 160 110 220 160 355 297 65 66 148 137 203 174 225 153 501 409 7e2 650 49 60 52 62 61 40 86-218 119-275 198-332 26-19 65-39 86-46 35-10 37-13 25-28-411-489-810-793-1379-1050-231-105-585-213-844-258-392-67-828-72-1185-13-664 110-1225 360-1745 776-199 160-595 563-553 563 30 0 120 52 157 89 48 49 99 139 137 243 22 58 32 74 40 65 6-7 53-61 105-122z"/><path d="M5777 10454c-16-16-6-44 17-50 62-15 83-72 92-247 8-156-2-206-46-239-21-15-30-30-30-50 0-26 3-28 38-28 83 1 169 66 218 167 25 51 29 69 28 143 0 66-6 95-23 132-26 54-103 130-153 151-43 18-131 31-141 21z"/><path d="M5615 10437c-86-34-142-86-178-166-31-70-29-189 5-261 33-71 86-125 151-156 64-30 133-32 142-5 8 27-2 44-38 61-56 26-68 70-70 255-2 178 4 205 55 227 19 9 28 20 28 35 0 19-5 23-32 22-18 0-46-6-63-12z"/><path d="M6168 10427c-35-32-43-77-23-120 42-88 172-71 190 26 8 39-13 90-44 107-36 18-96 12-123-13z"/><path d="M6399 10433c0-5-6-46-13-93-7-47-13-85-12-86 1-1 13-4 28-8 24-5 31-1 52 33 31 48 62 71 97 71 27 0 39 15 39 52 0 18-4 19-58 13-47-5-61-3-71 9-14 16-61 22-62 9z"/><path d="M6656 10388c-10-39-7-48 22-60 41-18 62-39 62-63 0-41-32-56-145-70-85-10-115-18-152-41-81-50-114-151-79-235 24-56 102-119 147-119 5 0 15 11 21 25 10 23 8 29-25 59-43 40-47 68-12 1e2 32 30 71 37 155 30 58-6 75-3 114 15 160 78 150 279-18 357-64 30-82 30-90 2z"/><path d="M5214 10391c-83-36-83-163 1-191 87-29 157 38 133 127-13 51-84 85-134 64z"/><path d="M4930 10332l-45-17-62-170c-35-94-88-240-119-325-38-103-65-162-81-176-19-16-23-26-17-48 3-15 12-25 18-23 6 2 63 21 126 42l115 38 88 249 87 249-31 99c-17 55-31 1e2-32 99-1 0-22-8-47-17z"/><path d="M6956 10299c-59-70-11-169 81-169 38 0 72 25 89 67 17 41 11 68-24 106-21 22-34 27-73 27-40 0-51-4-73-31z"/><path d="M7190 10245c-18-42-50-131-50-140 0-2 14-6 30-10 26-6 34-2 51 19 27 34 74 58 107 55 36-4 52 7 52 37 0 25-8 28-61 24-18-1-37 9-58 29-18 17-36 31-42 31-5 0-18-20-29-45z"/><path d="M4477 10185c-53-18-1e2-34-103-38-14-13 18-47 45-47 16 0 34-7 41-15 7-8 36-88 65-177 29-90 55-156 58-148 3 8 10 38 16 66 9 47 7 61-24 155-19 57-35 111-35 118 0 8 12 27 26 42 21 22 24 32 18 51l-9 24-98-31z"/><path d="M7438 10165c-10-23-8-28 31-64 38-36 41-41 30-64-16-36-58-49-121-37-120 23-224 4-275-51-29-32-53-91-53-132 0-80 96-197 139-170 26 16 25 41-3 74-31 36-33 62-7 88 32 32 78 35 165 11 92-26 138-22 197 16 57 36 79 77 79 149 0 74-27 125-88 172-52 40-78 42-94 8z"/><path d="M5056 9963c-16-52-16-62-2-1e2 14-40 14-42-10-74-21-28-24-59-9-76 1-2 47 11 103 29 90 28 102 34 102 54 0 27-26 44-68 44-28 0-31 3-58 90-15 50-31 90-34 90-4 0-15-26-24-57z"/><path d="M6739 9936c-10-17-19-34-19-37 0-7-73-44-102-53-11-3-18-15-18-32 0-27 0-27 56-20 42 5 61 3 73-8 17-14 61-31 61-22 0 14 22 163 26 177 3 12-4 18-27 21-27 4-34 0-50-26z"/><path d="M7419 9714c-35-38-77-57-110-50-22 4-31 1-39-14-21-40-13-50 39-50 40 0 53-5 68-23 10-13 27-26 39-29 18-5 25 5 54 84 28 75 31 91 19 99-24 15-44 10-70-17z"/><path d="M6282 8745c-1-91 17-219 37-265l12-25-6 25c-18 80-27 147-34 245l-8 110-1-90z"/><path d="M5706 6630c-40-13-83-56-98-99-6-20-12-74-11-121 0-159 55-310 193-535 40-66 101-168 136-227l62-108 54 68c73 91 120 157 158 222 114 193 240 482 240 551 0 109-82 225-175 248-55 14-91 8-153-25-57-30-98-30-203 0-104 30-165 38-203 26z"/><path d="M5539 6553c-29-75-31-227-5-318 31-104 126-283 126-236 0 7-20 74-45 149-77 239-89 314-60 407 20 69 11 68-16-2z"/><path d="M6750 6298c1-127 70-208 177-208h36l-71 70c-47 46-81 91-103 135-17 36-33 65-35 65-2 0-4-28-4-62z"/><path d="M4617 6310c-31-36-32-41-13-78 27-51 101-94 213-123 85-21 107-18 47 7-92 39-164 104-2e2 181l-20 45-27-32z"/><path d="M5368 6289c-16-27-46-62-69-79-45-32-137-70-172-70l-22-1 23-19c32-26 86-35 122-20 38 16 86 65 111 112 16 31 41 119 36 124-1 2-14-20-29-47z"/><path d="M6655 6058c-71-48-151-120-222-2e2-29-32-53-57-53-54 0 3 10 29 21 58 53 132 45 135-29 12-79-131-133-323-163-574-10-80-14-98-20-75-14 64-8 196 16 336 14 79 25 153 25 164 0 18-2 18-20-5-44-56-54-113-54-320l-1-195-30-55c-28-51-30-62-29-150 1-52 8-122 17-155 8-33 19-87 23-120 6-52 8-56 16-35 6 14 7 63 4 110-19 275-19 272 6 320 23 45 23 45 71 43 66-4 134-40 158-85 8-14 1-21-35-40l-45-23h77c98 0 159-24 302-117 119-78 248-144 3e2-153l35-6-25 20c-14 11-58 33-98 48-75 29-134 69-153 105-11 20-9 20 27 14 22-4 93-26 159-48 151-52 250-58 328-19 26 13 46 25 45 27-2 2-28-3-58-11-69-18-166-18-205 0l-30 13 30 1c113 3 257 84 332 185 52 70 94 157 114 236 18 76 16 241-5 311-39 131-131 238-246 286-61 25-75 27-210 27-108 1-161-4-210-17-91-25-241-83-332-128-43-22-80-39-83-39-11 0 38 86 74 129 20 24 85 84 144 133 116 95 128 111 32 46z"/><path d="M4810 5974c-81-17-192-72-246-122-36-32-43-45-53-103-24-143-9-316 42-449 62-164 147-268 278-340 71-39 39-40-81-1-97 31-107 20-17-20 73-32 201-30 362 5 160 35 167 34 129-5-44-46-137-87-254-112l-105-22 80-3c105-4 180 23 365 129 178 102 232 122 336 123l81 1-49 34c-26 19-48 37-48 41 0 17 1e2 27 135 14 32-13 46-63 55-202 10-152 21-199 51-234 18-20 20-21 14-3-17 49-17 228 0 388 22 212 17 374-15 467-28 83-133 260-186 315-43 45-86 69-143 80l-35 7 34-43c19-24 37-46 40-49 37-36 27-38-41-9-270 116-530 156-729 113z"/><path d="M6023 5295c0-22 2-30 4-17 2 12 2 30 0 40-3 9-5-1-4-23z"/><path d="M6007 5105c-13-257-17-654-6-605 10 44 25 656 17 715-2 17-7-33-11-110z"/><path d="M44e2 4955c-73-176-121-355-119-442l2-48 8 60c9 66 33 150 104 354 52 151 55 195 5 76z"/><path d="M7587 4985c3-16 24-79 46-140 56-158 68-198 87-310 11-61 18-86 19-63 3 117-57 346-125 478-21 41-31 54-27 35z"/><path d="M790 4409c-14-6-38-25-55-44-26-29-61-45-258-116-125-45-226-83-225-84 2-1 35 1 75 6 76 8 93 13 272 79 96 35 122 41 161 36 25-3 60-1 77 4l31 11-20 52c-24 64-27 67-58 56z"/><path d="M11157 4396c-3-12-14-44-25-72l-19-51 46-17c62-22 80-20 90 8 14 35 33 37 118 14 103-28 138-29 138-4 0 12-10 22-25 27-14 4-91 32-172 62-141 52-146 53-151 33z"/><path d="M11424 4219c-8-14 12-35 47-49 21-9 29-19 27-33-4-30 62-56 97-37 18 10 34 10 64 3 32-9 43-8 52 3 9 11 7 15-7 20-11 4-41 16-69 27-27 10-61 23-75 27-14 5-49 17-77 28-32 12-55 16-59 11z"/><path d="M11664 4216c-9-24 3-35 80-70 84-39 101-57 97-102-2-30 1-35 36-49 68-28 72-26 99 44 13 36 21 68 17 71-5 4-75 31-157 61-82 30-153 55-158 57-4 2-11-3-14-12z"/><path d="M11066 4145c-14-40-26-76-26-79 0-12 73-24 96-16 24 10 77-8 559-184 38-14 71-26 72-26 1 0 9-13 17-28 9-18 28-32 52-40 21-6 39-10 40-9 5 6 54 150 52 152-2 1-23 9-48 18-49 17-146 52-490 177-124 45-241 88-261 95l-37 13-26-73z"/><path d="M635 4113c-49-1-188-7-308-13-153-7-224-7-238 0-14 8-29 8-54-1-39-14-39-11-3-106l19-52 67 5c37 2 177 9 312 15l245 11 110 40c168 60 167 59 161 75-4 8-6 19-6 24 0 8-80 9-305 2z"/><path d="M10933 3842c-58-118-56-110-21-128 21-11 43-14 69-10 33 5 71-10 374-159 185-91 339-165 341-165 5 0 56 101 52 105-2 2-120 60-263 130-143 70-297 145-341 167-68 33-83 44-87 67-4 20-18 35-46 49l-40 21-38-77z"/><path d="M365 39e2c-22-5-64-18-92-29-42-16-58-18-80-10-29 11-103-5-103-22 0-5 9-33 20-63l21-54 41 16c28 11 43 25 50 43 7 20 22 32 51 43 23 8 85 31 137 50l95 35-50-1c-27 0-68-4-90-8z"/><path d="M855 3846c-38-13-166-72-284-130-188-93-218-105-251-1e2-27 4-48 0-78-15l-41-21 42-89 42-89 37 19c20 10 46 32 58 49 17 24 78 58 259 147 270 132 310 147 346 131 26-12 74 2 96 28 23 28-76 95-141 94-8 0-46-11-85-24z"/><path d="M11416 3811c-12-19 32-55 124-101 71-36 108-61 132-91 18-23 49-49 69-60l36-18 18 40c10 21 16 41 14 43-18 17-389 194-393 187z"/><path d="M1062 3715c-17-8-36-25-42-39-15-41-80-81-336-208-221-110-242-118-267-107-20 9-33 9-57-1-17-7-33-16-36-21-4-6 38-102 51-117 9-11 76 36 84 58 8 23 46 45 243 142 128 63 258 131 288 150 66 43 130 110 130 138 0 23-13 25-58 5z"/><path d="M10768 3525c-12-27-7-34 127-190 33-38 74-86 90-106 17-20 90-106 163-192 73-86 137-169 143-184 5-16 22-36 39-45l29-16 42 64 42 65-40 42c-21 23-64 71-94 107-30 36-58 70-64 76-5 6-56 65-112 131-103 121-119 134-306 244l-48 29-11-25z"/><path d="M1217 3459c-15-12-34-36-41-53-13-31-111-96-582-386l-71-44 30-52 30-52 106 66c58 36 203 126 321 199 193 121 218 134 249 129 25-4 44 1 68 15 18 11 33 23 33 25 0 10-103 174-109 174-3 0-19-10-34-21z"/><path d="M11235 3450c-6-9 371-2e2 393-2e2 8 0 45 70 40 75-23 19-78 35-123 35-47 0-71 8-155 50-97 49-142 60-155 40z"/><path d="M10620 3288l-30-53 23-17c13-11 40-18 66-18 35 0 59-9 110-42 36-22 82-51 101-63 19-12 73-46 120-75 47-29 96-60 110-68 14-9-2 12-35 46-36 38-1e2 86-163 124-152 93-180 114-195 151-12 28-54 67-71 67-3 0-19-24-36-52z"/><path d="M640 3225c-91-57-172-108-180-113-13-8-12-14 5-46 11-20 23-36 27-36 23 0 79 50 94 82 13 30 36 49 111 95 86 52 133 92 133 114 0 19-31 3-190-96z"/><path d="M11209 3272c22-38 79-90 139-127 40-24 65-47 68-62 5-20 60-73 76-73 3 0 20 23 37 52l33 52-29 24c-22 18-36 22-67 17-35-5-49 1-152 65-63 38-110 62-105 52z"/><path d="M10522 3142l-44-57 44-37c49-43 63-46 80-18 22 34 61 22 176-56 39-27 67-31 75-10 4 9-44 52-138 125-80 61-146 111-147 111-2 0-23-26-46-58z"/><path d="M1418 3149c-15-11-32-37-38-57-8-28-24-47-68-79-31-23-122-92-202-153-80-62-168-130-196-151-39-30-58-38-75-34-17 4-34-2-59-23l-34-29 43-57c24-31 48-59 52-62 6-3 425 312 596 448 9 7 22 7 42-2 24-9 34-9 59 4 17 9 34 21 37 27 8 11-42 88-97 151l-33 38-27-21z"/><path d="M10387 2968l-48-62 28-23c17-13 42-23 63-23 29 0 67-25 235-155 322-249 315-243 315-269 0-15 12-33 34-49l34-26 43 60c24 33 44 64 44 70 0 8-136 117-285 229-18 14-116 89-218 168-102 78-188 142-191 142-4 0-28-28-54-62z"/><path d="M886 2930c-78-47-109-60-140-60-24 0-56-10-82-25l-44-26 23-34c12-19 25-35 28-35 4 0 72 40 150 90 79 49 161 99 182 110 20 11 37 25 37 30 0 26-63 5-154-50z"/><path d="M10746 2933c-3-4 8-21 25-39 22-23 30-39 26-53-4-15 5-29 29-51 38-33 45-35 61-19 8 8 24 4 57-16 40-24 47-25 52-10 4 9 5 17 3 19-42 34-235 176-239 176-4 0-10-3-14-7z"/><path d="M1559 2872c-30-16-85-52-124-82-98-73-128-85-164-64-26 15-30 15-54-1-24-15-26-22-21-56 8-48-21-90-93-138-42-28-55-32-105-29-48 2-61-1-82-21-34-32-33-42 8-85 28-31 40-36 77-36 94 0 241 106 276 198 17 43 21 47 53 48 46 1 89 22 180 90 57 42 81 54 1e2 51 15-3 35 3 52 15 23 15 28 27 28 59 0 43-27 79-59 79-10 0-43-13-72-28z"/><path d="M10979 2854c-11-14-4-25 59-83 73-68 88-101 61-128-17-17-5-39 42-72l41-30 44 56c24 31 41 59 38 64-5 9-262 209-268 209-2 0-10-7-17-16z"/><path d="M10251 2795c-33-36-61-70-61-74 0-18 62-61 87-61 16 0 44-18 81-53 275-255 367-341 427-399l70-67 57 56 58 57-32 33c-24 25-41 33-66 33-30 0-56 21-241 192-259 241-241 222-241 256 0 19-11 39-33 60-18 18-36 32-39 32-3 0-33-29-67-65z"/><path d="M1707 2762c-15-15-27-40-27-53 0-18-13-37-42-62-24-19-133-112-243-206-176-150-204-171-235-171-22 0-46-9-65-24-34-27-38-18 54-124l55-62 33 32c18 18 33 39 32 48-1 8-1 20 0 26 0 7 56 58 124 115 67 57 136 116 152 130 164 145 210 179 237 173 39-8 102 42 85 66-24 34-120 140-126 140-4 0-19-13-34-28z"/><path d="M10110 2634c0-3 38-58 85-122 47-64 146-2e2 220-302 120-164 134-189 135-226 0-32 7-46 33-72l34-33 52 61c33 37 49 65 45 72-11 18-135 187-218 297-10 13 43-22 229-151l70-49-110 105c-64 62-180 156-280 227-93 67-193 139-221 161-46 35-74 47-74 32z"/><path d="M9990 2515l-44-44 29-23c16-13 44-25 61-28 25-4 76-45 216-175l182-170-53 77c-31 45-1e2 121-167 184-66 61-114 114-114 125 0 28-19 62-44 81-23 16-24 16-66-27z"/><path d="M1952 2497c-22-22-32-43-32-63 0-26-37-68-260-296-143-146-260-270-260-275 0-5 17-26 38-46l39-38 269 276c229 236 272 275 291 270 17-4 32 3 58 27l36 33-73 73-74 72-32-33z"/><path d="M9840 2375l-75-75 35-30c20-17 47-30 62-30 21 0 68-43 245-226 196-202 218-229 218-259 1-33 36-85 58-85 5 0 41 31 80 70l71 69-29 31c-20 21-38 30-61 30-28 0-55 24-254 230-195 202-221 234-216 255 5 19-1 33-26 60l-33 36-75-76z"/><path d="M2216 2258c-15-20-26-48-26-65 0-30-3-34-224-283-17-19-62-71-101-115-93-106-106-117-130-111-20 6-75-37-75-59 0-11 107-110 138-129 22-13 62 40 62 81 0 31 34 75 199 258 33 37 127 143 196 223 23 26 35 32 53 27 18-4 30 2 53 26 16 17 29 35 29 39 0 4-30 34-67 66-38 32-71 63-74 67-4 5-18-6-33-25z"/><path d="M1437 2124l-149-153 19-25c10-14 25-28 33-31 19-8 80 57 80 86 0 34 18 60 1e2 144 72 73 101 125 75 130-5 1-77-67-158-151z"/><path d="M9686 2234c-62-49-62-56-12-103 24-22 28-23 52-11 22 12 29 12 61-5 20-11 67-50 105-87 38-38 73-68 78-68 27 0 8 28-161 237l-66 81-57-44z"/><path d="M9544 2121c-16-14-45-38-63-52l-34-25 29-33c16-18 43-36 60-39 25-6 66-51 228-252 178-222 196-248 191-275-4-24 1-38 22-63l28-33 78 62c42 34 77 65 77 70 0 16-53 70-69 68-9-1-21-1-27 0-6 0-47 45-90 99-43 53-103 129-134 167-31 39-104 129-161 201l-105 131-30-26z"/><path d="M2411 2091c-12-16-21-43-21-61 0-25-29-72-137-222-76-104-162-223-191-264-41-56-59-74-77-74-16 0-33-12-51-35-15-20-25-37-23-38 2-2 30-22 62-46 32-23 62-41 67-39 10 3 49 55 325 437 105 144 190 266 190 272 0 6-28 30-62 55l-62 44-20-29z"/><path d="M1759 1910c-65-66-98-92-127-1e2-37-10-102-60-102-79 0-5 14-20 32-32l32-23 148 153c81 85 148 157 148 162 0 5-10 9-21 9-14 0-53-32-110-90z"/><path d="M2588 1956c-47-59-50-71-23-96 14-13 25-29 25-35 0-6-22-49-50-94-53-88-58-102-37-120 11-8 35 19 116 131 57 78 105 147 107 152 2 6-23 30-55 52l-58 42-25-32z"/><path d="M9170 1834c-47-34-85-66-85-71 0-19 42-60 70-70 41-13 409-515 401-546-5-22 14-66 37-85 12-10 26-4 76 33 33 25 61 47 61 50 0 3-89 128-198 278-271 372-246 332-233 368 8 24 7 37-4 58-27 53-34 53-125-15z"/><path d="M2417 1678c-21-22-31-27-41-19-24 20-85-66-63-88 9-9 6-22-13-56-18-33-21-48-13-56 8-8 29 14 80 83 88 118 113 155 113 162 0 17-38 1-63-26z"/><path d="M8916 1668c11-39 44-78 64-78 29 0 87-80 231-320 119-199 130-221 124-253-4-19-2-43 4-53 26-47 26-47 82-13 30 18 56 34 57 35 11 8-38 68-65 79-26 11-54 51-163 234-173 291-254 391-318 391-20 0-22-4-16-22z"/><path d="M8830 1630c-42-42-50-103-26-183 7-25 75-149 150-276 115-195 136-237 136-271 0-24 9-57 22-79l22-38 75 45c42 24 80 47 84 52 13 11-25 67-63 92-24 16-71 85-163 238-161 268-171 290-163 344 5 34 3 48-14 69-26 32-34 33-60 7z"/><path d="M9558 1636c-43-23-77-50-78-62 0-20 51-59 75-56 48 6 107-41 164-132 32-52 40-102 20-134-9-15-8-24 6-45 21-33 26-33 75-1 49 33 61 70 45 139-30 130-155 279-250 299-18 4-40 1-57-8z"/><path d="M3120 1583c-46-23-146-123-193-194-137-210-207-475-146-553 18-23 23-25 37-14 24 21 42 70 31 90-18 33 39 164 184 428 56 101 106 166 143 183 32 16 57 52 47 70-8 13-67 7-103-10z"/><path d="M3253 1558c-4-7-10-45-14-85-5-62-15-90-72-205-101-204-180-331-237-380-80-68-90-128-20-111 99 23 222 157 315 341 64 126 87 204 92 302 4 73 1 90-16 118-22 34-35 40-48 20z"/><path d="M2363 1473c-11-10-37-40-58-66-48-62-76-75-108-54-19 13-28 13-39 4-18-15-71-88-67-91 2-1 30-21 61-44l58-42 68 92c141 193 142 194 130 206-16 16-22 15-45-5z"/><path d="M3445 1435c-10-23-14-46-10-66 6-24-8-61-73-197-43-92-105-222-137-290-46-96-64-124-82-128-14-4-32-22-44-45l-20-39 25-10c14-5 48-21 76-35l51-26 43 93c24 51 110 232 190 402 81 170 145 310 143 312-4 5-135 64-141 64-2 0-11-16-21-35z"/><path d="M8526 1448c16-53 35-78 59-78 28 0 53-23 71-67 20-47 18-61-20-123-42-69-50-113-36-192 27-148 138-314 228-342 53-17 34 66-25 105-44 29-73 81-73 131 0 30 9 47 46 89l47 53-6 69c-15 178-152 377-258 377-37 0-40-2-33-22z"/><path d="M8458 1419c-8-22-15-28-27-24-25 11-40 11-41 0-4-19 105-245 117-245 21 0 23 17 8 66-17 58-19 126-4 141 8 8 5 22-10 52-12 22-24 41-27 41-3 0-10-14-16-31z"/><path d="M3646 1358c-13-18-15-36-10-85 9-83-16-160-117-364-84-168-119-216-169-226-26-5-36-15-52-51-23-50-16-62 37-62 107 0 240 136 327 335 60 135 81 216 82 307 1 92-11 122-61 155-19 13-23 12-37-9z"/><path d="M3870 1254c-6-16-8-49-5-75 6-42-3-73-88-305-123-336-122-334-146-334-14 0-26-11-36-37-9-20-14-41-12-46 1-5 44-25 95-43l92-33 15 36c18 41 19 59 5 68-20 12-8 56 76 286 47 129 94 257 103 284 13 37 26 54 48 64 20 9 34 26 45 55l16 42-77 28c-117 42-119 43-131 10z"/><path d="M4120 1174c-13-34-13-70 1-92 12-19-3-69-134-477-45-137-55-160-74-163-21-3-28-13-43-63-8-26-6-27 79-54 47-15 91-30 97-32 17-6 38 85 23 103-14 17-9 45 32 175 32 99 32 1e2 60 94 26-6 29-3 41 36 7 26 8 44 3 46-40 14-40 18 1 150 34 108 44 130 66 141 17 8 31 28 41 56 15 43 15 44-6 50-12 3-57 17-1e2 30l-78 25-9-25z"/><path d="M7785 1173c-44-14-81-27-82-28-1 0 3-18 10-40 7-24 22-44 39-54 21-12 33-31 47-76 48-160 205-660 207-664 3-3 114 30 114 35 0 1-27 89-61 196-118 377-159 511-159 525 0 7 5 21 11 31 18 28-1 97-26 99-11 1-56-10-1e2-24z"/><path d="M4371 1089c-14-40-14-65 0-87 8-13 3-41-21-122-18-58-35-116-39-130-6-20-14-24-35-22-20 2-28-3-36-23-16-41-12-62 11-68 25-7 25-8-23-160-24-76-37-101-54-109-14-7-29-28-38-54l-14-43 94-30c53-17 97-31 98-31 2 0 8 18 15 41 11 35 10 43-4 59-18 20-14 41 25 160 10 30 35 109 55 175 87 283 95 304 122 319 17 9 31 28 39 54l12 41-84 26c-46 14-90 28-98 31-9 3-18-6-25-27z"/><path d="M7486 1069c-16-5-33-14-37-21-15-23-9-140 11-238 26-123 25-126-11-162-27-28-30-35-22-62 7-23 16-32 37-36 38-7 65-45 81-113 14-62 4-137-21-158-15-12-18-39-7-78 5-21 10-23 49-18 61 7 91 29 105 79 15 55 5 161-21 230-19 52-61 108-81 108-5 0-3 10 5 23 26 40 27 80 6 201-19 107-19 120-5 136 28 31 2 96-45 112-8 3-28 1-44-3z"/><path d="M4606 1043c-10-25-7-72 6-92 13-21 9-46-57-350-19-90-35-166-35-169 0-4 16 27 35 67 25 52 46 124 71 240 31 146 39 169 64 193 26 25 49 83 37 94-3 3-30 11-60 18-48 11-57 11-61-1z"/><path d="M7220 1017c-52-11-96-21-98-23-10-7 25-86 44-99 12-8 25-27 28-42 12-64 98-463 113-527 14-63 14-71 0-96-13-21-14-34-6-63 5-21 16-37 23-37 23 0 131 23 138 29 6 5-5 58-72 371-11 52-33 157-49 233l-29 138 25 27c19 20 23 33 19 56-3 15-6 35-6 42 0 17-11 16-130-9z"/><path d="M4901 963c-7-15-55-1e2-107-190-52-89-137-237-190-328-53-91-104-171-114-178-10-7-22-29-28-49l-10-36 75-17c41-9 76-15 77-13 2 1 42 73 91 158 48 85 111 196 140 245 83 143 71 108 121 344 13 61 13 75 2 82-24 16-45 9-57-18z"/><path d="M8871 961c-11-7-10-18 3-64 18-62 21-123 6-132-15-9-12-26 12-65l21-35 14 33c15 36 16 37 43 20 42-27 37 8-19 124-32 65-59 120-62 122-2 3-11 1-18-3z"/><path d="M5060 917c0-24 7-57 15-73 14-30 34-248 36-399 0-44 4-89 8-1e2 7-17 11-13 21 25 9 33 11 97 6 243l-7 197 26 26c15 15 29 44 34 69l8 43-51 6c-96 11-96 11-96-37z"/><path d="M6910 932c0-17 9-37 21-48 45-39 79-161 113-404 27-193 29-222 13-268-19-54-12-122 13-122 26 0 60 43 76 96 33 106 28 318-11 469-43 163-135 305-198 305-23 0-27-4-27-28z"/><path d="M6823 935c-12-8-32-41-45-73-20-51-22-73-22-212 1-162 14-239 63-371 26-70 93-174 120-188 33-18 71-14 71 8 0 25-20 81-30 81-15 0-40 50-55 107-25 1e2-66 354-72 452-5 79-3 99 12 127 19 35 14 84-8 84-7 0-22-7-34-15z"/><path d="M5270 896c0-26 6-48 15-56 18-15 18-59 1-115-11-37-14-40-45-37-38 4-51-9-51-50 0-24 4-28 30-28 17 0 30-4 30-9 0-5-11-42-24-82-93-288-98-307-91-384 7-71 8-73 37-79 52-10 54-8 76 71 12 43 49 177 83 298 96 347 1e2 358 125 388 13 16 24 42 24 58 0 16 1 32 3 37 1 4-38 12-88 19-135 17-125 19-125-31z"/><path d="M6298 893l-58-4v-39c0-27 7-47 20-60 26-26 27-36 40-245 6-93 15-226 20-295 7-104 6-127-6-141-8-9-14-36-14-63V-1l78 7c42 4 79 8 81 10 4 4-17 321-40 612-11 134-8 158 20 167 23 7 30 30 23 73-5 35-1 35-164 25z"/><path d="M5906 748c3-79 8-145 10-147 2-2 10-1 19 2 10 4 15 19 15 45 0 52 17 101 46 133 24 26 31 72 15 98-7 11-12 10-27-8-23-26-41-27-49-1-3 11-13 20-21 20-13 0-14-19-8-142z"/><path d="M6057 883c-4-3-7-24-7-45 0-29 7-44 30-64 63-56 49-145-30-193-61-38-94-87-116-171-31-123-2-318 57-381 33-35 45-36 53-5 7 27-3 86-14 86-13 0-30 51-30 93 0 66 27 108 78 123 55 16 70 29 95 84 18 38 21 65 22 180 0 128-1 138-29 198-36 78-85 120-109 95z"/><path d="M8114 784c-4-17 5-64 26-134 27-89 32-118 26-159-4-31-2-67 5-90l12-39 43 15c24 8 41 20 39 26-12 35-96 3e2-110 350-18 62-31 72-41 31z"/><path d="M7781 533c27-87 57-183 65-214l16-56 39 11c21 6 40 14 43 17 12 12-18 75-55 116-21 23-43 60-49 85-36 132-67 198-95 198-9 0 3-52 36-157z"/><path d="M6528 522l-48-3v-39c0-33 5-42 29-54 37-19 62-81 68-167 7-80-9-136-43-151-19-9-24-19-24-50V20h48c68 0 92 16 118 80 45 109 26 307-37 383-32 39-44 43-111 39z"/><path d="M4832 444c-18-31-39-88-47-127-10-47-23-79-39-96-15-15-27-41-28-60-3-33-2-35 47-47 67-18 63-19 75 26 9 33 8 44-6 65-18 28-16 63 17 204 11 46 18 85 16 87-2 2-18-22-35-52z"/><path d="M6157 273c-4-3-7-24-7-45 0-46-23-105-50-130-21-20-26-63-11-87 7-11 12-10 27 8 22 25 40 27 48 6 3-8 12-15 21-15 17 0 20 60 9 193-6 72-17 91-37 70z"/></g></svg>