<svg xmlns="http://www.w3.org/2000/svg" width="1071" height="696" fill="none" viewBox="0 0 1071 696"><g id="nosll 1"><g id="g18"><g id="g20"><path id="path98" fill="#56423D" fill-rule="evenodd" d="M881.46 298.91L887.683 300.15C895.795 301.862 893.047 315.956 884.791 314.42L879.393 313.46C878.188 320.375 876.682 327.16 874.918 333.515C868.555 356.428 858.592 373.611 846.782 372.042L839.823 371.118C834.33 378.606 828.163 382.645 821.527 381.767L782.928 376.668C774.7 375.583 768.863 365.159 765.98 349.256C763.33 334.663 763.008 315.094 765.538 293.694C761.768 293.218 757.435 292.718 752.632 292.208C751.884 293.155 751.058 293.802 750.178 294.082C748.115 302.558 742.099 310.28 737.784 315.056C732.79 320.59 730.222 329.004 728.388 336.732C723.384 357.854 718.352 375.094 707.972 387.206C708.522 391.943 704.655 397.523 701.888 400.368C698.419 430.046 689.598 443.518 676.57 459.227C680.663 476.33 675.694 504.91 657.798 522.359C656.331 542.404 645.323 558.188 633.29 566.342C631.156 575.079 628.87 583.598 625.083 591.143C625.04 595.518 626.172 599.63 627.3 603.731C629.178 610.548 629.411 614.994 629.08 621.235L631.963 621.319C634.06 621.521 634.811 622.663 634.811 624.231V664.403C626.459 665.663 618.095 666.776 609.691 667.624C602.876 668.314 596.123 668.838 589.439 669.202C589.063 669.916 588.579 670.572 588.012 671.14C586.568 672.582 584.578 673.479 582.386 673.479H556.17C553.976 673.479 551.983 672.582 550.54 671.14C550.022 670.619 549.57 670.026 549.21 669.377C542.19 669.044 535.255 668.523 528.407 667.806C520.142 666.942 511.934 665.744 503.742 664.351V624.231C503.742 622.688 504.875 621.605 506.587 621.319L509.12 621.247C508.788 615 509.024 610.554 510.899 603.731C512.03 599.63 513.162 595.518 513.118 591.143C509.334 583.598 507.046 575.079 504.911 566.342C492.879 558.188 481.868 542.404 480.404 522.359C462.508 504.91 457.539 476.33 461.631 459.227C448.603 443.518 439.782 430.046 436.312 400.368C433.546 397.523 429.678 391.943 430.227 387.206C419.848 375.094 414.818 357.854 409.812 336.732C407.98 329.004 405.411 320.59 400.416 315.056C396.104 310.28 390.084 302.558 388.026 294.082C387.132 293.799 386.29 293.135 385.534 292.163C381.36 292.658 377.188 293.166 373.014 293.694C375.546 315.094 375.224 334.663 372.575 349.256C369.69 365.159 363.852 375.583 355.626 376.668L317.026 381.767C310.391 382.645 304.224 378.606 298.731 371.118L291.771 372.042C279.962 373.611 269.998 356.428 263.638 333.515C261.872 327.16 260.364 320.375 259.16 313.46L253.764 314.42C245.506 315.956 242.76 301.862 250.87 300.15L257.094 298.91C256.356 292.197 255.927 285.538 255.848 279.211C255.552 256.067 260.2 237.395 271.796 235.744V235.746L276.346 234.822C279.327 223.118 284.635 215.788 292.46 214.183L331.355 206.202C339.359 204.56 347.802 213.056 354.93 227.086C361.491 239.999 367.251 258.247 370.882 279.066C374.595 278.666 378.262 278.28 381.904 277.899C382.239 272.896 385.316 268.838 391.634 267.486L417.371 260.47C423.807 258.716 431.272 266.446 436.238 272.734C529.263 264.896 603.674 264.547 701.955 272.739C706.924 266.451 714.394 258.715 720.831 260.47L746.567 267.486C752.871 268.835 755.948 272.876 756.295 277.866C760.052 278.255 763.836 278.655 767.672 279.066C771.304 258.247 777.06 239.999 783.623 227.086C790.754 213.056 799.195 204.56 807.198 206.202L846.094 214.183C853.919 215.788 859.227 223.118 862.208 234.822L866.759 235.746V235.744C878.354 237.395 883 256.067 882.708 279.211C882.627 285.538 882.198 292.197 881.46 298.91ZM699.815 287.499C655.194 284.075 602.5 281.16 569.276 281.199C525.44 281.254 481.799 283.131 438.259 286.816C439.862 294.586 436.178 303.72 431.796 307.924C439.727 323.22 458.339 341.292 462.691 367.43C480.943 372.78 491.727 386.58 490.187 406.223C506.615 411.95 517.894 417.103 523.279 430.063C528.08 426.315 534.848 424.166 538.288 423.279C538.618 418.272 538.644 415.722 538.675 410.794C533.186 406.68 524.952 390.611 536.035 388.062C535.691 374.567 538.846 361.215 545.364 354.533C557.55 342.039 580.652 342.039 592.839 354.533C599.355 361.215 602.511 374.567 602.167 388.062C613.246 390.611 605.014 406.68 599.524 410.794C599.558 415.722 599.583 418.272 599.911 423.279C603.352 424.166 610.12 426.315 614.92 430.063C620.306 417.103 631.586 411.95 648.012 406.223C646.474 386.58 657.26 372.78 675.507 367.43C679.863 341.292 698.474 323.22 706.406 307.924C702.15 303.843 698.555 295.115 699.815 287.499Z" clip-rule="evenodd"/><path id="path100" fill="#CA2000" fill-rule="evenodd" d="M590.35 651.194H592.284C593.899 651.194 595.211 652.505 595.211 654.121C595.211 654.321 595.188 654.518 595.151 654.705C595.188 654.893 595.211 655.09 595.211 655.29C595.211 656.906 593.899 658.217 592.284 658.217H590.35V663.308C596.56 662.953 602.815 662.457 609.118 661.819C615.599 661.165 622.212 660.347 628.959 659.366V628.235C616.095 627.881 603.231 627.642 590.367 627.514C590.41 627.762 590.44 628.012 590.436 628.263L590.426 629.155C590.434 629.247 590.436 629.342 590.436 629.432L590.36 636.76H592.284C593.899 636.76 595.211 638.07 595.211 639.686C595.211 639.886 595.188 640.083 595.151 640.271C595.188 640.46 595.211 640.657 595.211 640.856C595.211 642.474 593.899 643.782 592.284 643.782H590.35V651.194Z" clip-rule="evenodd"/><path id="path102" fill="#CA2000" fill-rule="evenodd" d="M843.036 366.23C860.719 368.551 866.25 345.035 869.839 332.112C872.12 323.895 873.966 314.888 875.271 305.804C876.578 296.708 877.334 287.583 877.44 279.148C877.703 258.614 874.386 242.159 866.015 240.968L865.872 240.936L863.415 240.436C864.836 248.327 865.436 257.528 865.308 267.395C865.024 289.9 861.703 312.815 855.68 334.502C852.243 346.88 847.963 357.922 843.036 366.23ZM794.011 372.819C818.898 376.099 824.955 351.666 830.628 331.177C836.563 309.732 839.776 287.031 840.051 264.783C840.382 238.22 835.88 217.41 824.967 215.19L817.176 213.606C820.462 218.67 822.916 226.086 824.43 235.22C830.262 270.363 822.98 321.487 807.568 353.618C803.4 362.304 798.776 368.926 794.011 372.819ZM813.782 375.426C838.747 378.715 844.956 353.436 850.606 333.098C856.5 311.862 859.767 289.375 860.044 267.332C860.371 241.584 855.992 221.572 845.351 219.406L836.575 217.622C842.919 227.215 845.566 244.728 845.318 264.846C845.035 287.554 841.766 310.692 835.708 332.582C830.274 352.194 822.727 368.332 813.782 375.426Z" clip-rule="evenodd"/><path id="path104" fill="#CA2000" fill-rule="evenodd" d="M843.036 366.23C854.683 367.759 861.06 358.081 865.079 347.601L852.467 344.943C849.695 353.081 846.528 360.342 843.036 366.23ZM850.919 331.955L836.631 329.137C836.331 330.289 836.026 331.437 835.708 332.579C830.274 352.191 822.727 368.333 813.782 375.423C838.747 378.715 844.954 353.439 850.606 333.099L850.919 331.955ZM831.435 328.195L817.707 325.842C814.914 335.951 811.506 345.403 807.568 353.619C803.402 362.305 798.776 368.923 794.011 372.821C818.898 376.099 824.955 351.666 830.628 331.179C830.904 330.187 831.172 329.19 831.435 328.195Z" clip-rule="evenodd"/><path id="path106" fill="#CA2000" fill-rule="evenodd" d="M876.412 260.092C874.868 249.207 871.544 241.755 866.015 240.966L865.872 240.937L863.415 240.439C864.396 245.882 864.984 251.946 865.215 258.426L876.412 260.092ZM825.41 242.361L839.164 244.179C837.368 228.055 832.834 216.792 824.964 215.191L817.176 213.603C820.459 218.669 822.914 226.086 824.43 235.218C824.816 237.534 825.139 239.922 825.41 242.361ZM844.482 244.939L859.154 247.101C857.384 231.677 852.979 220.961 845.348 219.409L836.575 217.622C840.706 223.864 843.264 233.458 844.482 244.939Z" clip-rule="evenodd"/><path id="path108" fill="#CA2000" fill-rule="evenodd" d="M784.638 296.515C784.052 303.522 784.262 309.772 785.142 314.455C785.951 318.77 787.095 321.471 788.406 321.622C789.94 321.798 792.068 318.97 794.258 314.26C796.848 308.69 799.088 300.802 800.359 291.915C800.5 290.927 800.63 289.926 800.747 288.918C801.686 280.754 801.576 273.411 800.612 268.059C799.811 263.622 798.658 260.823 797.311 260.63V260.624L797.298 260.622L797.295 260.63C796.018 260.482 794.234 262.607 792.306 266.25C790.23 270.179 788.32 275.646 786.876 282.004C788.902 282.382 790.92 282.783 792.932 283.209C801.046 284.919 798.295 299.015 790.04 297.478C788.242 297.143 786.443 296.823 784.638 296.515Z" clip-rule="evenodd"/><path id="path110" fill="#FF2800" fill-rule="evenodd" d="M781.672 281.085C783.227 274.173 785.33 268.166 787.642 263.794C790.62 258.155 794.216 254.963 797.894 255.387L797.928 255.397L798.012 255.407H798.055C801.919 255.961 804.575 260.358 805.794 267.13C806.851 272.985 806.983 280.871 805.991 289.517C805.874 290.531 805.738 291.579 805.582 292.658C804.238 302.059 801.839 310.471 799.05 316.467C795.86 323.322 791.86 327.33 787.807 326.865C783.906 326.418 781.219 322.119 779.958 315.426C778.979 310.205 778.75 303.303 779.418 295.658C776.538 295.203 773.647 294.779 770.758 294.382C768.299 315.231 768.6 334.225 771.162 348.329C773.623 361.901 777.966 370.635 783.67 371.448C789.603 372.291 796.486 364.547 802.819 351.347C818.115 319.465 825.018 270.954 819.23 236.066C818.13 229.454 815.355 213.233 806.44 211.425C800.855 210.641 794.388 217.538 788.331 229.461C782.011 241.893 776.448 259.534 772.91 279.743C775.836 280.151 778.759 280.595 781.672 281.085Z" clip-rule="evenodd"/><path id="path112" fill="#CA2000" fill-rule="evenodd" d="M781.672 281.084C783.227 274.172 785.331 268.166 787.642 263.797C790.624 258.157 794.216 254.963 797.894 255.388L797.924 255.397L798.012 255.409H798.055C801.919 255.961 804.575 260.358 805.794 267.13C806.448 270.745 806.748 275.135 806.647 279.999C806.732 284.013 806.522 288.447 805.987 293.097C805.875 294.113 805.738 295.163 805.584 296.239C804.234 305.641 801.839 314.054 799.05 320.048C795.86 326.906 791.86 330.914 787.807 330.448C783.906 329.999 781.219 325.705 779.958 319.009C779.346 315.749 779.03 309.964 779.036 304.222V304.214V303.897L779.04 303.78V303.567V303.354L779.046 302.92V302.909L779.05 302.579C779.083 300.148 779.17 297.77 779.327 295.639C776.475 295.19 773.618 294.775 770.758 294.38C769.958 301.179 769.446 307.788 769.216 314.086L769.214 314.198V314.21C769.123 316.889 769.079 319.546 769.067 322.158V322.166V322.463C769.092 332.143 769.814 340.914 771.159 348.327C773.623 361.899 777.966 370.632 783.67 371.448C789.603 372.291 796.491 364.548 802.819 351.347C814.243 327.527 820.987 294.43 821.254 264.666C821.178 255.874 820.519 247.423 819.23 239.648C818.13 233.036 815.356 216.815 806.44 215.005C800.855 214.223 794.388 221.118 788.331 233.039C782.382 244.754 777.099 261.086 773.546 279.833C776.262 280.217 778.968 280.632 781.672 281.084Z" clip-rule="evenodd"/><path id="path114" fill="#CA2000" fill-rule="evenodd" d="M295.52 366.23C277.835 368.551 272.303 345.035 268.715 332.112C266.434 323.895 264.587 314.888 263.284 305.804C261.978 296.708 261.219 287.583 261.111 279.148C260.851 258.614 264.168 242.159 272.539 240.968L272.682 240.936L275.136 240.436C273.716 248.327 273.119 257.528 273.246 267.395C273.53 289.9 276.851 312.815 282.872 334.502C286.31 346.88 290.591 357.922 295.52 366.23ZM344.542 372.819C319.655 376.099 313.598 351.666 307.927 331.177C301.988 309.732 298.778 287.031 298.502 264.783C298.172 238.22 302.675 217.41 313.588 215.19L321.376 213.606C318.094 218.67 315.639 226.086 314.124 235.22C308.291 270.363 315.574 321.487 330.986 353.618C335.154 362.304 339.778 368.926 344.542 372.819ZM324.774 375.426C299.807 378.715 293.598 353.436 287.951 333.098C282.054 311.862 278.788 289.375 278.508 267.332C278.183 241.584 282.56 221.572 293.203 219.406L301.978 217.622C295.635 227.215 292.987 244.728 293.238 264.846C293.518 287.554 296.787 310.692 302.846 332.582C308.276 352.194 315.828 368.332 324.774 375.426Z" clip-rule="evenodd"/><path id="path116" fill="#CA2000" fill-rule="evenodd" d="M295.52 366.23C283.867 367.759 277.492 358.07 273.472 347.589L286.083 344.934C288.855 353.077 292.023 360.342 295.52 366.23ZM287.632 331.947L301.919 329.129C302.219 330.281 302.53 331.432 302.847 332.579C308.276 352.191 315.828 368.333 324.774 375.423C299.807 378.715 293.599 353.439 287.951 333.099L287.632 331.947ZM307.118 328.182L320.844 325.833C323.638 335.945 327.044 345.403 330.986 353.619C335.152 362.305 339.778 368.923 344.542 372.821C319.656 376.099 313.598 351.666 307.927 331.179C307.647 330.182 307.38 329.187 307.118 328.182Z" clip-rule="evenodd"/><path id="path118" fill="#CA2000" fill-rule="evenodd" d="M262.135 260.127C263.678 249.222 267.002 241.755 272.539 240.969L272.682 240.937L275.136 240.437C274.156 245.89 273.567 251.967 273.339 258.459L262.135 260.127ZM313.14 242.391L299.386 244.209C301.178 228.073 305.712 216.792 313.588 215.19L321.376 213.606C318.094 218.67 315.639 226.086 314.124 235.22C313.738 237.542 313.411 239.938 313.14 242.391ZM294.067 244.975L279.396 247.133C281.16 231.691 285.57 220.961 293.203 219.406L301.978 217.622C297.847 223.87 295.284 233.478 294.067 244.975Z" clip-rule="evenodd"/><path id="path120" fill="#CA2000" fill-rule="evenodd" d="M353.916 296.515C354.503 303.522 354.292 309.772 353.411 314.455C352.602 318.77 351.459 321.471 350.148 321.622C348.612 321.798 346.488 318.97 344.295 314.26C341.706 308.69 339.466 300.802 338.195 291.915C338.052 290.927 337.923 289.926 337.807 288.918C336.87 280.754 336.976 273.411 337.94 268.059C338.742 263.622 339.896 260.823 341.242 260.63V260.624L341.258 260.622V260.63C342.535 260.482 344.32 262.607 346.247 266.25C348.324 270.179 350.232 275.646 351.676 282.004C349.654 282.382 347.635 282.783 345.619 283.209C337.51 284.919 340.258 299.015 348.512 297.478C350.312 297.143 352.112 296.823 353.916 296.515Z" clip-rule="evenodd"/><path id="path122" fill="#FF2800" fill-rule="evenodd" d="M356.88 281.085C355.327 274.173 353.224 268.166 350.914 263.794C347.932 258.155 344.339 254.963 340.659 255.387L340.628 255.397L340.54 255.407H340.499C336.635 255.961 333.98 260.358 332.759 267.13C331.703 272.985 331.572 280.871 332.564 289.517C332.68 290.531 332.818 291.579 332.971 292.658C334.318 302.059 336.716 310.471 339.506 316.467C342.696 323.322 346.695 327.33 350.746 326.865C354.647 326.418 357.336 322.119 358.595 315.426C359.575 310.205 359.804 303.303 359.135 295.658C362.016 295.203 364.906 294.779 367.795 294.382C370.255 315.231 369.955 334.225 367.394 348.329C364.932 361.901 360.587 370.635 354.883 371.448C348.951 372.291 342.067 364.547 335.734 351.347C320.439 319.465 313.536 270.954 319.327 236.066C320.424 229.454 323.198 213.233 332.114 211.425C337.7 210.641 344.164 217.538 350.224 229.461C356.542 241.893 362.106 259.534 365.646 279.743C362.718 280.151 359.795 280.595 356.88 281.085Z" clip-rule="evenodd"/><path id="path124" fill="#CA2000" fill-rule="evenodd" d="M356.882 281.084C355.328 274.172 353.224 268.166 350.914 263.797C347.93 258.157 344.339 254.963 340.66 255.388L340.628 255.397L340.539 255.409H340.499C336.636 255.961 333.98 260.358 332.759 267.13C331.703 272.982 331.571 280.871 332.564 289.518L332.655 290.282V290.291L332.662 290.333C332.739 291.246 332.835 292.167 332.94 293.097C333.058 294.113 333.192 295.163 333.346 296.239C334.695 305.641 337.095 314.054 339.884 320.048C343.071 326.906 347.07 330.914 351.122 330.448C355.023 329.999 357.714 325.705 358.971 319.009C359.906 314.038 360.159 303.21 359.603 295.58C362.331 295.158 365.06 294.759 367.795 294.38C370.256 315.23 369.955 334.225 367.394 348.327C364.93 361.899 360.587 370.632 354.886 371.448C348.951 372.291 342.066 364.548 335.734 351.347C327.227 333.62 321.322 310.751 318.746 287.942C317.086 270.939 317.302 254.122 319.706 239.648C320.8 233.036 323.575 216.815 332.492 215.005C338.075 214.223 344.543 221.118 350.599 233.039C356.544 244.741 361.823 261.058 365.376 279.779C362.539 280.175 359.708 280.611 356.882 281.084Z" clip-rule="evenodd"/><path id="path126" fill="#56423D" fill-rule="evenodd" d="M757.555 287.45C768.754 288.665 779.915 290.235 790.99 292.297C792.503 292.578 793.132 288.638 791.86 288.369C780.676 286.009 769.346 284.401 757.968 283.338C757.878 284.773 757.738 286.143 757.555 287.45ZM258.311 308.253L252.814 309.239C251.299 309.51 250.668 305.565 251.943 305.31L257.731 304.161C257.912 305.526 258.104 306.889 258.311 308.253ZM880.239 308.253L885.74 309.239C887.255 309.51 887.886 305.565 886.612 305.31L880.823 304.161C880.642 305.526 880.446 306.889 880.239 308.253ZM380.998 287.45C369.799 288.665 358.638 290.235 347.563 292.297C346.051 292.578 345.42 288.638 346.692 288.369C357.876 286.009 369.206 284.401 380.584 283.338C380.676 284.773 380.815 286.143 380.998 287.45ZM569.276 271.789C522.834 271.765 476.396 273.715 429.963 277.706C432.214 278.643 434.682 279.393 437.207 279.871C437.991 280.018 438.623 280.494 439.084 281.113C482.42 277.758 525.816 275.989 569.276 275.937C613.198 275.882 657.124 277.589 701.051 281.19C701.516 280.533 702.17 280.023 702.983 279.871C705.388 279.415 707.744 278.713 709.906 277.837C662.959 273.851 616.079 271.813 569.276 271.789Z" clip-rule="evenodd"/><path id="path128" fill="#fff" fill-rule="evenodd" d="M596.227 530.994L595.92 530.996H595.543C590.384 530.971 585.44 530.166 582.867 527.943C572.61 519.078 577.774 500.682 571.54 489.958C573.242 502.363 569.58 530.168 577.73 537.212C581.372 540.36 573.92 541.031 573.106 541.171C569.798 541.739 569.902 543.634 569.346 546.77L569.311 546.57L569.276 546.77L569.243 546.583L569.212 546.77L569.175 546.57L569.143 546.77C568.587 543.634 568.691 541.739 565.384 541.171C564.568 541.031 557.115 540.36 560.76 537.212C568.908 530.168 565.247 502.363 566.948 489.958C560.716 500.682 565.878 519.078 555.62 527.943C553.051 530.166 548.107 530.971 542.946 530.996H542.639H542.567L542.26 530.994C539.6 530.976 536.902 530.758 534.462 530.424C521.026 528.586 503.928 521.499 499.336 507.143C494.183 491.048 498.86 455.395 478.104 433.619C493.218 458.471 486.71 500.1 484.384 508.538C466.618 504.222 459.908 457.018 477.163 481.936C476.118 472.579 473.463 462.249 468.055 455.555C461.594 447.562 455.802 439.942 451.827 431.666C446.33 420.221 441.339 399.89 449.355 410.859C453.272 416.218 457.339 423.897 461.646 433.531C456.931 419.158 450.768 403.619 444.031 398.046C439.192 394.044 437.082 388.786 437.684 384.848C423.475 374.246 420.551 356.185 414.904 335.267C413.67 330.686 411.715 327.322 410.334 322.433C409.855 320.741 409.347 312.338 416.814 326.163C412.564 309.133 406.686 312.038 404.602 310.691C399.055 307.106 395.408 300.974 393.58 294.919L407.5 293.09C406.095 295.594 406.163 298.271 407.356 301.554C409.31 294.35 415.028 292.342 418.411 291.731C422.643 290.967 424.552 289.922 425.818 288.069C419.974 288.286 416.604 281.351 419.466 276.297C422.839 278.963 424.298 280.049 430.836 281.875C438.318 283.966 433.803 311.202 414.288 308.635C418.594 310.997 422.738 311.343 426.187 310.609C430.376 321.039 436.528 332.662 439.287 345.257C437.503 330.774 431.903 315.215 440.516 329.469C448.418 342.543 457.812 356.704 458.014 371.579C458.074 376.062 459.388 380.406 461.376 384.658C461.112 380.486 461.532 376.59 462.423 372.88C476.328 377.946 486.976 391.29 484.776 409.234C483.839 415.263 484.776 421.286 488.456 427.315C486.903 416.055 488.434 410.511 497.274 414.887C508.63 420.514 515.695 424.982 518.612 438.639C519.247 441.621 520.434 444.447 524.583 445.452C520.435 434.478 540.239 422.871 536.384 447.943C540.356 440.41 541.903 431.282 543.436 422.848C543.69 421.455 543.87 420.609 544.067 420.318C544.156 420.126 544.25 420.041 544.352 420.065C544.651 419.987 545.028 420.922 545.595 422.847C549.579 436.414 553.916 435.658 546.412 451.363C554.448 439.07 553.167 436.09 556.7 435.526C556.795 435.51 556.894 435.505 556.998 435.506H557.003H557.008H557.014H557.034H557.04C557.112 435.497 557.187 435.494 557.263 435.497C559.247 435.458 562.587 438.428 569.236 438.447H569.254C575.9 438.428 579.242 435.458 581.224 435.497C581.302 435.494 581.376 435.497 581.448 435.506H581.455H581.475H581.48H581.487H581.492C581.594 435.505 581.692 435.51 581.788 435.526C585.323 436.09 584.044 439.07 592.076 451.363C584.572 435.658 588.91 436.414 592.894 422.847C593.46 420.922 593.836 419.987 594.138 420.065C594.239 420.041 594.331 420.126 594.419 420.318C594.619 420.609 594.799 421.455 595.052 422.848C596.587 431.282 598.132 440.41 602.106 447.943C598.25 422.871 618.055 434.478 613.904 445.452C618.055 444.447 619.242 441.621 619.88 438.639C622.794 424.982 629.859 420.514 641.216 414.887C650.058 410.511 651.586 416.055 650.032 427.315C653.712 421.286 654.651 415.263 653.712 409.234C651.51 391.29 662.164 377.946 676.067 372.88C676.956 376.59 677.378 380.486 677.112 384.658C679.099 380.406 680.415 376.062 680.476 371.579C680.678 356.704 690.074 342.543 697.974 329.469C706.588 315.215 700.987 330.774 699.202 345.257C701.962 332.662 708.11 321.039 712.302 310.609C715.752 311.343 719.896 310.997 724.2 308.635C704.684 311.202 700.172 283.966 707.655 281.875C714.191 280.049 715.652 278.963 719.022 276.297C721.884 281.351 718.516 288.286 712.672 288.069C713.936 289.922 715.848 290.967 720.079 291.731C723.463 292.342 729.179 294.35 731.134 301.554C732.328 298.271 732.394 295.594 730.991 293.09L744.908 294.919C743.082 300.974 739.434 307.106 733.888 310.691C731.802 312.038 725.924 309.133 721.678 326.163C729.143 312.338 728.634 320.741 728.155 322.433C726.776 327.322 724.82 330.686 723.584 335.267C717.94 356.185 715.014 374.246 700.804 384.848C701.407 388.786 699.296 394.044 694.458 398.046C687.722 403.619 681.558 419.158 676.843 433.531C681.147 423.897 685.216 416.218 689.135 410.859C697.154 399.89 692.162 420.221 686.663 431.666C682.688 439.942 676.898 447.562 670.436 455.555C665.028 462.249 662.375 472.579 661.328 481.936C678.58 457.018 671.874 504.222 654.107 508.538C651.779 500.1 645.274 458.471 660.386 433.619C639.63 455.395 644.308 491.048 639.155 507.143C634.56 521.499 617.464 528.586 604.027 530.424C601.59 530.758 598.891 530.976 596.227 530.994ZM708.41 273.619L714.132 273.978L719.632 271.021C723.758 273.993 724.18 279.393 723.322 283.533C722.8 285.951 724.448 288.027 725.782 288.265L741.491 290.048C748.566 290.853 750.303 283.646 750.707 278.134C750.996 274.195 747.736 272.294 744.516 271.497C746.032 274.237 745.788 277.285 745.131 281.179C744.374 275.272 743.834 271.327 737.954 269.87C739.452 272.839 739.272 276.874 738.62 280.742C737.566 272.497 736.966 269.626 729.256 267.716C730.994 270.862 731.64 275.698 730.982 279.611C730.312 274.409 728.491 269.461 726.05 266.922L720.542 265.557C716.54 264.566 710.6 269.497 708.41 273.619ZM567.382 607.344L569.243 570.618L571.11 607.344C571.451 614.112 574.631 617.5 578.591 618.843C580.118 619.374 581.77 619.598 583.419 619.596C589.874 619.596 596.36 616.057 595.696 613.585L595.628 613.588V613.585L595.563 613.588V613.585L595.494 613.588V613.585C595.246 613.597 594.996 613.606 594.744 613.608H594.732H594.722H594.708C586.118 613.591 576.211 607.612 572.615 602.942C578.612 605.45 583.871 606.506 588.212 606.567H588.215C588.379 606.571 588.542 606.572 588.704 606.572H588.714C588.886 606.572 589.058 606.571 589.227 606.567C607.006 606.303 608.374 588.966 580.016 588.906H579.914H579.894H579.888H579.871H579.866H579.846H579.839H579.82H579.815H579.796H579.79H579.768H579.764H579.746H579.74H579.722H579.712H579.692H579.687H579.667H579.662H579.643H579.636H579.618H579.612H579.595H579.587H579.567H579.56H579.544H579.483H579.464H579.459H579.44H579.383H579.366C579.04 588.907 578.71 588.911 578.376 588.917C581.075 586.576 584.795 585.148 590.195 585.127H590.235H590.34C591.375 585.135 592.471 585.195 593.631 585.307C594.714 585.411 595.691 585.465 596.578 585.466H596.603H596.667H596.691H596.754H596.779H596.823L597.019 585.464C602.572 585.426 604.398 583.362 605.104 579.939C605.959 569.634 594.824 565.699 584.899 565.666L584.692 565.663H584.686H584.683H584.678H584.674H584.672H584.667H584.662H584.655H584.654H584.65H584.647H584.642H584.639H584.636H584.634H584.628H584.622H584.619L584.435 565.666H584.428H584.42H584.415H584.408H584.339H584.334C582.776 565.674 581.254 565.78 579.815 565.972C583.183 564.31 587.058 563.443 590.774 563.427H590.808H590.878C592.891 563.442 594.85 563.71 596.658 564.231C599.023 564.915 600.863 565.31 602.35 565.304H602.419H602.423H602.492C605.44 565.315 606.994 563.778 608.424 559.844C608.99 557.6 608.794 555.575 607.05 554.335C602.21 550.894 596.907 548.654 591.819 547.363C588.078 546.412 584.483 546.022 581.286 546.004L581.2 546.002H581.131H581.05H580.982H580.94H580.872H580.852H580.784H580.763H580.695H580.676H580.607L580.59 546.004H580.516H580.5C578.751 546.019 577.128 546.148 575.675 546.355C571.272 546.986 569.744 559.071 569.243 563.272C568.744 559.071 567.218 546.986 562.814 546.355C561.36 546.148 559.738 546.019 557.988 546.004H557.97H557.899L557.883 546.002H557.812H557.792H557.724H557.706H557.636H557.615H557.547H557.51H557.44H557.356H557.287L557.203 546.004C554.006 546.022 550.411 546.412 546.67 547.363C541.584 548.654 536.279 550.894 531.44 554.335C529.695 555.575 529.5 557.6 530.064 559.844C531.494 563.778 533.048 565.315 535.996 565.304H536.066H536.07H536.139C537.627 565.31 539.468 564.915 541.834 564.231C543.638 563.71 545.598 563.442 547.61 563.427H547.682H547.715C551.435 563.443 555.308 564.31 558.675 565.972C557.235 565.78 555.714 565.674 554.156 565.666H554.151H554.079H554.074H554.068H554.06H554.052L553.868 565.663H553.867H553.862H553.86H553.855H553.852H553.85H553.847H553.842H553.839H553.836H553.834H553.828H553.827H553.823H553.822H553.818H553.814H553.811H553.808H553.803H553.796H553.795L553.59 565.666C543.664 565.699 532.53 569.634 533.383 579.939C534.09 583.362 535.918 585.426 541.47 585.464L541.667 585.466H541.71H541.735H541.798H541.823H541.886H541.911C542.795 585.465 543.774 585.411 544.855 585.307C546.016 585.195 547.115 585.135 548.148 585.127H548.256H548.292C553.694 585.148 557.414 586.576 560.112 588.917C559.779 588.911 559.451 588.907 559.126 588.906H559.107H559.048H559.031H559.023H559.003H558.948H558.93H558.922H558.902H558.894H558.878H558.871H558.852H558.844H558.827H558.822H558.802H558.794H558.776H558.768H558.748H558.743H558.724H558.718H558.699H558.692H558.675H558.67H558.648H558.643H558.624H558.619H558.6H558.592H558.574H558.474C530.118 588.966 531.484 606.303 549.262 606.567C549.431 606.571 549.602 606.572 549.774 606.572H549.784C549.948 606.572 550.11 606.571 550.274 606.567H550.276C554.618 606.506 559.878 605.45 565.872 602.942C562.279 607.612 552.372 613.591 543.779 613.608H543.767H543.756H543.742C543.492 613.606 543.244 613.597 542.996 613.585V613.588L542.927 613.585V613.588L542.863 613.585L542.862 613.588L542.794 613.585C542.128 616.057 548.615 619.596 555.068 619.596C556.719 619.598 558.37 619.374 559.898 618.843C563.858 617.5 567.038 614.112 567.382 607.344ZM528.26 550.123C524.334 552.915 523.747 556.85 524.796 561.043C525.072 562.771 524.731 563.519 523.972 563.494L523.894 563.491H523.834C521.888 563.543 516.978 558.103 512.86 550.942C515.26 559.406 521.206 568.698 528.484 573.08C527.948 575.499 527.784 577.918 527.986 580.333C528.546 584.132 527.906 586.444 526.306 586.411H526.218H526.17C524.51 586.444 521.776 583.882 518.242 577.72C520.094 584.707 523.754 589.628 529.891 594.52C529.563 596.372 529.462 598.16 529.622 599.915C530.342 607.914 537.119 609.882 534.943 617.959L534.81 617.96L534.803 617.991C534.096 618.006 533.41 618.015 532.746 618.018L532.431 618.02H532.362H532.052H531.982H531.678C524.695 617.998 520.142 617.265 517.722 615.16C515.218 613.304 514.631 610.412 516.067 606.148C516.14 605.814 516.222 605.47 516.311 605.115C517.432 601.786 518.755 600.77 520.434 600.77L520.443 600.766L520.466 600.77H520.594H520.62C522.652 600.759 525.206 602.248 528.552 602.923C519.548 593.83 513.359 577.488 510.036 563.775L510.134 563.666L509.975 563.522L509.498 561.549C506.163 549.77 503.375 540.932 494.284 531.9C498.487 539.882 502.955 551.822 500.558 551.778H500.555C500.543 551.78 500.527 551.778 500.511 551.778H500.496H500.491C500.462 551.782 500.432 551.782 500.399 551.781C499.64 551.818 498.142 550.567 495.644 547.452C487.271 537.008 487.751 528.743 490.587 522.244C491.876 519.287 493.06 517.874 494.53 517.898H494.586H494.664C496.176 517.874 497.992 519.4 500.543 522.36C509.044 532.223 542.995 539.648 528.26 550.123ZM614.655 563.491C616.602 563.543 621.514 558.103 625.63 550.942C623.23 559.406 617.284 568.698 610.006 573.08C610.54 575.499 610.706 577.918 610.503 580.333C609.946 584.132 610.583 586.444 612.184 586.411H612.274H612.319C613.979 586.444 616.712 583.882 620.248 577.72C618.396 584.707 614.735 589.628 608.599 594.52C608.923 596.372 609.027 598.16 608.867 599.915C608.147 607.914 601.371 609.882 603.546 617.959L603.679 617.96L603.686 617.991C604.391 618.006 605.078 618.015 605.744 618.018L606.058 618.02H606.126H606.439H606.506H606.812C613.794 617.998 618.347 617.264 620.767 615.16C623.274 613.304 623.859 610.412 622.422 606.148C622.351 605.814 622.271 605.47 622.178 605.115C621.058 601.786 619.731 600.77 618.055 600.77L618.047 600.766L618.022 600.77H617.896H617.868C615.836 600.759 613.284 602.248 609.938 602.923C618.939 593.83 625.131 577.488 628.452 563.775L628.354 563.666L628.514 563.522L628.992 561.549C632.327 549.77 635.115 540.932 644.204 531.9C640.003 539.882 635.534 551.822 637.932 551.778H637.935H637.978H637.98H637.996H638C638.026 551.782 638.058 551.782 638.087 551.781C638.848 551.818 640.348 550.567 642.844 547.452C651.219 537.008 650.739 528.743 647.904 522.244C646.615 519.287 645.431 517.874 643.959 517.898H643.903H643.826C642.312 517.874 640.498 519.4 637.946 522.36C629.443 532.223 595.495 539.648 610.231 550.123C614.155 552.915 614.743 556.85 613.692 561.043C613.416 562.771 613.76 563.519 614.516 563.494L614.598 563.491H614.655ZM645.211 434.59C635.703 471.033 587.182 470.546 580.142 484.385C579.151 466.79 626.023 469.617 645.211 434.59ZM624.32 512.592C625.839 511.927 627.344 511.591 628.582 511.58H628.598H628.651C629.996 511.598 631.014 512.007 631.36 512.8C632.035 514.34 629.946 516.744 626.692 518.17C625.174 518.834 623.67 519.17 622.431 519.179H622.418H622.363C621.018 519.166 620.003 518.755 619.654 517.959C618.978 516.422 621.067 514.015 624.32 512.592ZM509.839 511.58C508.494 511.598 507.478 512.007 507.13 512.8C506.454 514.34 508.543 516.744 511.794 518.17C513.315 518.834 514.818 519.17 516.058 519.179H516.071H516.123C517.472 519.166 518.488 518.755 518.836 517.959C519.511 516.422 517.422 514.015 514.17 512.592C512.651 511.927 511.147 511.591 509.904 511.58H509.894H509.839ZM430.079 273.619L424.358 273.978L418.856 271.021C414.731 273.993 414.308 279.393 415.17 283.533C415.687 285.951 414.042 288.027 412.708 288.265L396.998 290.048C389.922 290.853 388.187 283.646 387.782 278.134C387.494 274.195 390.754 272.294 393.974 271.497C392.456 274.237 392.702 277.285 393.36 281.179C394.115 275.272 394.658 271.327 400.535 269.87C399.038 272.839 399.215 276.874 399.87 280.742C400.924 272.497 401.523 269.626 409.232 267.716C407.495 270.862 406.85 275.698 407.508 279.611C408.174 274.409 409.998 269.461 412.443 266.922L417.948 265.557C421.951 264.566 427.888 269.497 430.079 273.619ZM493.279 434.59C502.786 471.033 551.306 470.546 558.347 484.385C559.339 466.79 512.466 469.617 493.279 434.59Z" clip-rule="evenodd"/><path id="path130" fill="#CA2000" fill-rule="evenodd" d="M626.046 425.187C629.747 420.879 634.796 418.067 641.216 414.887C647.802 411.626 650.331 413.872 650.55 419.887C645.902 415.796 634.651 418.16 626.046 425.187ZM656.928 389.531C660.916 381.641 667.934 375.843 676.067 372.88C676.439 374.432 676.727 376.015 676.923 377.635C669.279 377.841 662.774 382.431 656.928 389.531ZM682.478 359.57C685.695 349.058 692.23 338.975 697.974 329.469C703.055 321.062 703.188 323.029 702.076 329.027C693.819 337.93 688.039 347.325 682.478 359.57ZM749.839 274.675L745.354 273.663C745.175 272.915 744.903 272.195 744.516 271.497C746.596 272.011 748.692 272.987 749.839 274.675ZM743.055 273.143L738.759 272.174C738.576 271.355 738.312 270.583 737.954 269.87C740.512 270.505 742.06 271.61 743.055 273.143ZM736.276 271.613L730.327 270.27C730.036 269.343 729.679 268.482 729.256 267.717C732.954 268.631 735.015 269.768 736.276 271.613ZM728.039 269.754L718.37 267.569L710.5 270.67C713.279 267.509 717.48 264.799 720.542 265.557L726.05 266.922C726.771 267.674 727.44 268.635 728.039 269.754Z" clip-rule="evenodd"/><path id="path132" fill="#CA2000" fill-rule="evenodd" d="M436.627 330.175C435.302 323.307 435.123 320.546 440.515 329.469C447.082 340.334 454.679 351.949 457.174 364.101C451.204 350.138 445.3 339.813 436.627 330.175ZM461.563 377.677C461.756 376.039 462.048 374.443 462.423 372.881C471.398 376.151 479.014 382.868 482.696 392.046C476.552 383.807 469.711 378.234 461.563 377.677ZM487.972 419.25C488.346 413.718 490.926 411.745 497.274 414.887C504.808 418.619 510.452 421.845 514.251 427.581C505.922 419.195 493.606 415.729 487.972 419.25ZM388.811 274.452L393.183 273.463C393.363 272.787 393.62 272.134 393.974 271.497C391.987 271.987 389.987 272.9 388.811 274.452ZM395.583 272.923L399.776 271.975C399.956 271.231 400.203 270.526 400.535 269.87C398.102 270.474 396.583 271.505 395.583 272.923ZM402.372 271.389L408.227 270.067C408.506 269.218 408.839 268.424 409.23 267.717C405.687 268.594 403.646 269.675 402.372 271.389ZM410.566 269.538L419.291 267.569L428.408 271.162C425.643 267.797 421.17 264.759 417.948 265.557L412.44 266.922C411.766 267.625 411.136 268.513 410.566 269.538Z" clip-rule="evenodd"/><path id="path134" fill="#fff" fill-rule="evenodd" d="M574.458 361.594C575.891 360.843 577.183 359.846 578.083 358.605C579.57 356.558 581.33 355.997 583.172 356.503C584.44 356.85 585.644 357.75 586.732 359.023C587.699 360.158 588.607 361.618 589.391 363.242C591.831 368.303 593.823 374.655 592.199 378.715C595.06 381.064 595.531 384.726 595.567 388.319C595.926 387.942 596.286 387.526 596.67 387.05C597.456 373.667 594.836 364.245 588.946 358.209C578.376 347.37 560.176 347.369 549.607 358.209C543.719 364.245 541.098 373.667 541.884 387.05C542.267 387.526 542.627 387.942 542.986 388.319C543.022 384.726 543.492 381.064 546.355 378.715C544.73 374.655 546.719 368.303 549.163 363.242C549.946 361.618 550.854 360.158 551.822 359.023C552.908 357.75 554.112 356.85 555.382 356.503C557.224 355.997 558.983 356.558 560.468 358.605C561.371 359.846 562.663 360.843 564.098 361.594C567.779 363.522 570.776 363.522 574.458 361.594Z" clip-rule="evenodd"/><path id="path136" fill="#fff" fill-rule="evenodd" d="M588.216 425.639C590.839 422.361 589.388 418.858 590.595 413.571C591.219 410.827 594.368 407.597 595.358 403.658C594.396 413.959 603.61 399.723 602.188 394.738C601.719 393.086 600.868 391.951 598.482 392.106C596.295 394.542 593.486 394.289 590.727 395.974C592.339 389.003 594.127 383.69 587.186 379.729C591.074 375.091 588.679 369.858 586.224 364.77C585.566 363.405 584.827 362.206 584.063 361.306C583.414 360.547 582.79 360.036 582.25 359.887C581.862 359.782 581.415 360.001 580.934 360.669C579.699 362.371 577.972 363.715 576.08 364.706C571.17 367.274 567.386 367.274 562.472 364.706C560.58 363.715 558.855 362.371 557.619 360.669C557.135 360.001 556.692 359.782 556.303 359.887C555.763 360.036 555.139 360.547 554.491 361.306C553.727 362.206 552.987 363.405 552.328 364.77C549.874 369.858 547.48 375.091 551.37 379.729C544.427 383.69 546.218 389.003 547.828 395.974C545.067 394.289 542.255 394.542 540.072 392.106C537.686 391.951 536.51 393.026 536.366 394.738C535.884 400.506 544.158 413.959 543.196 403.658C544.186 407.594 547.334 410.825 547.958 413.566C549.164 418.858 547.714 422.354 550.336 425.639C559.938 437.653 578.615 437.654 588.216 425.639Z" clip-rule="evenodd"/><path id="path138" fill="#56423D" fill-rule="evenodd" d="M548.602 395.189C552.84 391.218 557.914 395.443 560.222 393.541C561.67 392.343 562.488 395.813 562.623 398.469C564.54 393.505 563.218 388.946 560.607 388.811C557.916 388.669 553.188 388.319 550.899 389.838C549.434 390.813 548.667 392.703 548.602 395.189Z" clip-rule="evenodd"/><path id="path140" fill="#56423D" fill-rule="evenodd" d="M567.055 404.051C568.183 402.694 570.366 402.731 571.498 404.051C573.636 406.548 579.124 406.188 575.178 408.346C571.126 407.635 567.602 407.588 563.375 408.346C559.87 406.428 564.579 407.023 567.055 404.051Z" clip-rule="evenodd"/><path id="path142" fill="#56423D" fill-rule="evenodd" d="M557.547 418.127C567.334 412.77 571.571 413.075 581.007 418.127C573.186 416.434 565.367 416.481 557.547 418.127Z" clip-rule="evenodd"/><path id="path144" fill="#56423D" fill-rule="evenodd" d="M560.908 420.622C567.966 424.712 570.986 424.512 577.644 420.622C572.066 420.082 566.488 420.004 560.908 420.622Z" clip-rule="evenodd"/><path id="path146" fill="#56423D" fill-rule="evenodd" d="M589.794 395.189C585.555 391.218 580.484 395.443 578.174 393.541C576.722 392.343 575.906 395.813 575.774 398.469C573.855 393.505 575.178 388.946 577.787 388.811C580.48 388.669 585.207 388.319 587.496 389.838C588.96 390.813 589.73 392.703 589.794 395.189Z" clip-rule="evenodd"/><path id="path148" fill="#CA2000" fill-rule="evenodd" d="M583.876 626.919C583.488 626.533 582.962 626.295 582.386 626.295H556.17C555.591 626.295 555.063 626.533 554.676 626.919C554.295 627.303 554.055 627.832 554.055 628.41V665.551C554.063 666.113 554.302 666.627 554.676 667.004C555.063 667.386 555.591 667.626 556.17 667.626H582.386C582.962 667.626 583.488 667.386 583.876 667.004C584.21 666.67 584.432 666.227 584.487 665.739V665.731L584.488 665.726V665.699H584.492L584.5 665.539V657.045H580.823V658.694C580.823 660.209 580.326 661.627 579.524 662.692C578.547 663.996 577.126 664.808 575.503 664.808H563.051C561.428 664.808 560.006 663.996 559.028 662.692C558.227 661.627 557.73 660.209 557.73 658.694V635.229C557.73 633.715 558.224 632.295 559.028 631.229C560.006 629.926 561.428 629.116 563.051 629.116H575.503C577.126 629.116 578.547 629.926 579.524 631.229C580.326 632.295 580.823 633.715 580.823 635.229V636.76H584.5V628.41C584.5 627.832 584.26 627.303 583.876 626.919ZM580.823 651.194H584.5V642.611H580.823V651.194Z" clip-rule="evenodd"/><path id="path150" fill="#CA2000" fill-rule="evenodd" d="M573.662 657.528C572.043 657.528 570.734 656.218 570.734 654.604C570.734 654.401 570.756 654.207 570.795 654.017C570.756 653.829 570.734 653.632 570.734 653.433C570.734 651.816 572.043 650.505 573.662 650.505H574.971V643.093H573.662C572.043 643.093 570.734 641.785 570.734 640.168C570.734 639.968 570.756 639.771 570.795 639.584C570.756 639.394 570.734 639.197 570.734 638.998C570.734 637.384 572.043 636.072 573.662 636.072H574.971V635.712V635.705V635.703V635.697V635.692V635.687V635.683C574.968 635.596 574.963 634.346 574.951 634.28H563.603C563.591 634.346 563.584 635.596 563.582 635.683V658.006V658.032C563.584 658.122 563.591 658.197 563.603 658.267H574.951C574.963 658.197 574.971 658.122 574.971 658.032V658.028V658.023V658.018V658.015V658.009V658.006V657.528H573.662Z" clip-rule="evenodd"/><path id="path152" fill="#CA2000" fill-rule="evenodd" d="M548.256 627.513C535.37 627.638 522.482 627.881 509.595 628.235V659.414C516.016 660.458 522.49 661.319 529.003 662C535.354 662.664 541.756 663.16 548.203 663.488V629.547V628.41C548.203 628.109 548.219 627.809 548.256 627.513Z" clip-rule="evenodd"/></g></g></g><defs><clipPath id="clip0"><rect width="127" height="124" fill="#fff" transform="translate(736.625 503) rotate(37)"/></clipPath><clipPath id="clip1"><rect width="127" height="124" fill="#fff" transform="translate(286 580.431) rotate(-37)"/></clipPath></defs></svg>