<svg width="491" height="385" viewBox="0 0 491 385" fill="none" xmlns="http://www.w3.org/2000/svg">
<g id="nosll 1">
<g id="symbols">
<g id="salad">
<path id="Vector" d="M296.663 73.6668H289.22L298.603 35.3428C298.723 34.8468 298.638 34.3248 298.366 33.8898C298.093 33.4538 297.656 33.1408 297.148 33.0168L289.174 31.0778C288.668 30.9548 288.133 31.0288 287.682 31.2848C287.232 31.5418 286.903 31.9588 286.766 32.4488L275.206 73.6668H270.697C272.017 71.9988 272.735 69.9558 272.742 67.8508V62.0358H266.762C264.421 62.0408 262.157 62.8478 260.366 64.3138C258.576 65.7808 257.373 67.8128 256.969 70.0558C256.203 68.9758 255.218 68.0608 254.075 67.3668C252.931 66.6728 251.654 66.2138 250.32 66.0198C248.987 65.8248 247.627 65.8978 246.324 66.2348C245.022 66.5718 243.804 67.1648 242.746 67.9768C246.828 51.0028 246.828 50.7918 246.828 50.4038C246.828 49.3278 246.598 48.2648 246.152 47.2798C245.706 46.2958 245.054 45.4128 244.238 44.6868C243.422 43.9598 242.46 43.4068 241.412 43.0618C240.365 42.7168 239.255 42.5878 238.153 42.6828C237.343 40.4048 235.822 38.4298 233.804 37.0318C231.785 35.6348 229.369 34.8838 226.891 34.8838C224.413 34.8838 221.996 35.6348 219.978 37.0318C217.959 38.4298 216.439 40.4048 215.628 42.6828C214.527 42.5888 213.418 42.7188 212.371 43.0648C211.325 43.4098 210.363 43.9638 209.548 44.6898C208.733 45.4158 208.082 46.2988 207.637 47.2818C207.191 48.2658 206.961 49.3288 206.961 50.4038C206.961 50.9288 206.973 51.8078 210.349 62.1708C209.888 62.0938 209.422 62.0488 208.954 62.0358H202.974V67.8508C202.981 69.9558 203.7 71.9988 205.019 73.6668H196.994C196.465 73.6668 195.958 73.8718 195.584 74.2348C195.21 74.5988 195 75.0918 195 75.6058C195 93.6488 212.395 105.073 216.928 107.738V114.378C216.928 114.892 217.138 115.385 217.511 115.749C217.885 116.112 218.392 116.317 218.921 116.317H274.736C275.265 116.317 275.772 116.112 276.145 115.749C276.519 115.385 276.729 114.892 276.729 114.378V107.738C281.262 105.073 298.657 93.6488 298.657 75.6058C298.657 75.0918 298.447 74.5988 298.073 74.2348C297.699 73.8718 297.192 73.6668 296.663 73.6668ZM290.099 35.2978L294.267 36.3098L285.121 73.6668H279.341L290.099 35.2978ZM260.782 71.7288C260.782 70.1858 261.412 68.7068 262.534 67.6158C263.655 66.5258 265.176 65.9128 266.762 65.9128H268.756V67.8508C268.756 69.3938 268.126 70.8728 267.004 71.9638C265.883 73.0548 264.362 73.6668 262.776 73.6668H260.782V71.7288ZM248.822 69.7898C250.058 69.7918 251.264 70.1648 252.274 70.8588C253.283 71.5528 254.047 72.5338 254.461 73.6668H243.183C243.596 72.5338 244.36 71.5528 245.37 70.8588C246.38 70.1648 247.585 69.7918 248.822 69.7898ZM238.514 73.6668H227.235C227.647 72.5328 228.411 71.5498 229.421 70.8548C230.431 70.1598 231.637 69.7868 232.875 69.7868C234.112 69.7868 235.319 70.1598 236.329 70.8548C237.339 71.5498 238.102 72.5328 238.514 73.6668ZM210.947 50.4038C210.933 49.7688 211.082 49.1408 211.381 48.5768C211.679 48.0128 212.118 47.5298 212.657 47.1718C213.197 46.8148 213.819 46.5938 214.469 46.5298C215.118 46.4658 215.773 46.5608 216.375 46.8058C216.652 46.9088 216.949 46.9498 217.245 46.9268C217.54 46.9038 217.826 46.8178 218.083 46.6738C218.34 46.5298 218.56 46.3318 218.728 46.0938C218.896 45.8568 219.008 45.5858 219.055 45.3018C219.345 43.4818 220.294 41.8228 221.732 40.6248C223.17 39.4268 225.001 38.7678 226.895 38.7678C228.788 38.7678 230.619 39.4268 232.057 40.6248C233.495 41.8228 234.444 43.4818 234.735 45.3018C234.781 45.5858 234.893 45.8568 235.061 46.0938C235.229 46.3318 235.449 46.5298 235.706 46.6738C235.963 46.8178 236.249 46.9038 236.545 46.9268C236.84 46.9498 237.137 46.9088 237.414 46.8058C238.005 46.5648 238.648 46.4698 239.287 46.5268C239.925 46.5848 240.539 46.7938 241.075 47.1358C241.611 47.4778 242.052 47.9428 242.36 48.4898C242.668 49.0368 242.834 49.6488 242.842 50.2718C242.575 51.6468 240.238 61.3938 238.703 67.7778C237.013 66.5698 234.972 65.9168 232.875 65.9128C230.578 65.9158 228.352 66.6878 226.573 68.1008C224.794 69.5138 223.57 71.4788 223.107 73.6668H218.921V71.7288C218.915 70.2908 218.579 68.8718 217.936 67.5768C217.294 66.2818 216.361 65.1428 215.207 64.2438C211.504 53.0128 210.989 50.7668 210.947 50.4038ZM206.961 67.8508V65.9128H208.954C210.54 65.9128 212.061 66.5258 213.183 67.6158C214.304 68.7068 214.934 70.1858 214.934 71.7288V73.6668H212.941C211.355 73.6668 209.834 73.0548 208.712 71.9638C207.591 70.8728 206.961 69.3938 206.961 67.8508ZM274.198 104.685H264.769V108.562H272.742V112.439H220.914V108.562H246.828V104.685H219.459C217.215 103.394 205.81 96.3698 201.072 85.2988H222.908V81.4218H199.755C199.418 80.1498 199.188 78.8528 199.069 77.5448H294.588C294.469 78.8528 294.239 80.1498 293.902 81.4218H250.815V85.2988H292.585C287.846 96.3698 276.442 103.394 274.198 104.685Z" fill="#CA2000"/>
<path id="Vector 2" d="M226.895 81.4218H230.881V85.2988H226.895V81.4218Z" fill="#CA2000"/>
<path id="Vector 3" d="M234.868 81.4218H238.855V85.2988H234.868V81.4218Z" fill="#CA2000"/>
<path id="Vector 4" d="M242.842 81.4218H246.828V85.2988H242.842V81.4218Z" fill="#CA2000"/>
<path id="Vector 5" d="M243.82 29.7658C243.319 30.8848 243.2 32.1308 243.482 33.3208C244.341 37.2368 248.987 41.2188 254.292 42.5858C258.345 43.6578 262.499 44.3288 266.691 44.5878H266.762C267.129 44.5878 267.488 44.4898 267.801 44.3038C268.114 44.1178 268.368 43.8518 268.535 43.5338C268.702 43.2168 268.776 42.8608 268.749 42.5058C268.722 42.1498 268.595 41.8088 268.381 41.5188C268.359 41.4878 266.126 38.4718 262.361 33.7128C260.688 31.5978 256.247 26.6168 251.142 26.0278C249.587 25.8398 248.011 26.1408 246.645 26.8868C245.54 26.3978 244.597 25.6178 243.925 24.6348C243.253 23.6518 242.877 22.5048 242.842 21.3248H238.855C238.854 23.0308 239.311 24.7068 240.183 26.1878C241.054 27.6688 242.308 28.9018 243.82 29.7658ZM250.179 29.8488C250.344 29.8488 250.508 29.8588 250.672 29.8798C253.134 30.1628 256.401 32.5378 259.203 36.0838C260.481 37.6998 261.582 39.1118 262.475 40.2708C260.061 39.9258 257.67 39.4488 255.312 38.8418C251.162 37.7738 247.861 34.7108 247.381 32.5178C247.278 32.1668 247.29 31.7918 247.415 31.4478C247.541 31.1028 247.773 30.8038 248.08 30.5928C248.667 30.1108 249.411 29.8488 250.179 29.8548V29.8488Z" fill="#CA2000"/>
<path id="Vector 6" d="M218.921 54.2808H222.908V58.1578H218.921V54.2808Z" fill="#CA2000"/>
<path id="Vector 7" d="M228.888 58.1578H232.875V62.0358H228.888V58.1578Z" fill="#CA2000"/>
<path id="Vector 8" d="M204.858 31.0178C205.38 31.0448 207.268 31.1338 209.763 31.1338C214.729 31.1338 222.096 30.7778 225.832 28.8558C228.316 27.4428 230.149 25.1568 230.953 22.4688C231.437 21.2028 231.66 19.8568 231.608 18.5078C231.556 17.1578 231.23 15.8318 230.65 14.6055C228.192 10.0808 220.753 9.40999 215.997 11.8565C210.314 14.778 203.901 26.8358 203.189 28.2008C203.038 28.4888 202.964 28.8088 202.972 29.1308C202.981 29.4538 203.072 29.7698 203.238 30.0498C203.403 30.3298 203.638 30.5648 203.921 30.7338C204.204 30.9028 204.526 31.0008 204.858 31.0178ZM216.477 20.3068L210.401 23.7538C211.336 22.3168 212.359 20.8728 213.391 19.5588L216.477 20.3068ZM218.921 23.4068V26.7238C216.697 27.0028 214.459 27.1648 212.217 27.2108L218.921 23.4068ZM227.162 21.2748C226.668 22.9978 225.53 24.4808 223.972 25.4328C223.628 25.5958 223.273 25.7368 222.91 25.8538V21.1468L227.6 18.4848C227.615 19.4298 227.467 20.3708 227.162 21.2688V21.2748ZM225.657 15.1037L221.407 17.5158L216.433 16.3058C216.872 15.9188 217.352 15.5788 217.867 15.2938C219.069 14.7025 220.392 14.3783 221.739 14.3444C223.086 14.3105 224.424 14.5679 225.657 15.0979V15.1037Z" fill="#CA2000"/>
<path id="Vector 9" d="M272.742 15.5088H276.729C277.258 15.5088 277.765 15.3048 278.139 14.9411C278.513 14.5775 278.723 14.0844 278.723 13.5703C278.718 9.9725 277.247 6.5232 274.631 3.9792C272.015 1.4352 268.468 0.0041 264.769 0H260.782C260.253 0 259.746 0.204302 259.373 0.567802C258.999 0.931402 258.789 1.42451 258.789 1.93861C258.793 5.53641 260.264 8.9857 262.88 11.5297C265.496 14.0737 269.043 15.5048 272.742 15.5088ZM264.769 3.8772C267.066 3.8797 269.292 4.6524 271.071 6.0649C272.85 7.4775 274.074 9.44361 274.537 11.6317H272.742C270.446 11.6292 268.22 10.8565 266.441 9.444C264.661 8.0314 263.437 6.0653 262.975 3.8772H264.769Z" fill="#CA2000"/>
<path id="Vector 10" d="M248.822 15.5088C250.005 15.5088 251.161 15.1678 252.144 14.5287C253.128 13.8897 253.894 12.9814 254.347 11.9187C254.799 10.856 254.918 9.6866 254.687 8.5584C254.456 7.4303 253.887 6.394 253.05 5.5806C252.214 4.7673 251.149 4.2134 249.989 3.989C248.828 3.7646 247.626 3.8798 246.533 4.3199C245.441 4.7601 244.507 5.5056 243.85 6.462C243.192 7.4184 242.842 8.5428 242.842 9.6931C242.842 11.2355 243.472 12.7148 244.593 13.8055C245.715 14.8961 247.236 15.5088 248.822 15.5088ZM248.822 7.7544C249.216 7.7544 249.601 7.8681 249.929 8.0812C250.257 8.2942 250.513 8.5969 250.663 8.9512C250.814 9.3054 250.854 9.6952 250.777 10.0713C250.7 10.4473 250.51 10.7927 250.231 11.0639C249.953 11.335 249.597 11.5196 249.211 11.5944C248.824 11.6692 248.423 11.6308 248.059 11.4841C247.695 11.3374 247.383 11.0889 247.164 10.7701C246.945 10.4513 246.828 10.0765 246.828 9.6931C246.828 9.1789 247.038 8.6858 247.412 8.3223C247.786 7.9587 248.293 7.7544 248.822 7.7544Z" fill="#CA2000"/>
<path id="Vector 11" d="M270.749 27.1408C270.749 28.2908 271.1 29.4148 271.757 30.3718C272.414 31.3278 273.348 32.0738 274.441 32.5138C275.533 32.9538 276.736 33.0688 277.896 32.8448C279.056 32.6198 280.122 32.0658 280.958 31.2528C281.794 30.4398 282.364 29.4028 282.595 28.2748C282.825 27.1468 282.707 25.9778 282.254 24.9148C281.802 23.8518 281.035 22.9438 280.052 22.3048C279.068 21.6658 277.912 21.3248 276.729 21.3248C275.143 21.3248 273.622 21.9378 272.501 23.0278C271.379 24.1188 270.749 25.5978 270.749 27.1408ZM278.723 27.1408C278.723 27.5238 278.606 27.8988 278.387 28.2178C278.168 28.5368 277.856 28.7848 277.492 28.9318C277.128 29.0778 276.727 29.1168 276.34 29.0418C275.954 28.9668 275.599 28.7828 275.32 28.5118C275.041 28.2398 274.851 27.8948 274.774 27.5188C274.697 27.1428 274.737 26.7528 274.888 26.3988C275.038 26.0448 275.294 25.7418 275.622 25.5288C275.95 25.3158 276.335 25.2018 276.729 25.2018C277.258 25.2018 277.765 25.4058 278.139 25.7698C278.513 26.1328 278.723 26.6268 278.723 27.1408Z" fill="#CA2000"/>
<path id="Vector 12" d="M256.795 52.3428H260.782V56.2198H256.795V52.3428Z" fill="#CA2000"/>
<path id="Vector 13" d="M262.776 19.3858H266.762V23.2638H262.776V19.3858Z" fill="#CA2000"/>
<path id="Vector 14" d="M230.881 1.9386H234.868V5.8158H230.881V1.9386Z" fill="#CA2000"/>
<path id="Vector 15" d="M272.742 44.5878H276.729V48.4648H272.742V44.5878Z" fill="#CA2000"/>
</g>
<g id="clock">
<g id="Group">
<path id="Vector 16" d="M490.27 306.74C487.739 290.17 478.884 275.423 465.338 265.215C451.792 255.008 435.176 250.561 418.55 252.695C401.924 254.83 387.279 263.289 377.313 276.515C367.346 289.741 363.251 306.151 365.782 322.721C368.313 339.291 377.167 354.038 390.713 364.246C404.259 374.454 420.876 378.9 437.502 376.766C454.128 374.632 468.773 366.172 478.739 352.946C488.706 339.72 492.801 323.311 490.27 306.74ZM436.91 372.889C421.323 374.889 405.745 370.721 393.045 361.151C380.346 351.582 372.045 337.756 369.672 322.222C367.299 306.687 371.139 291.303 380.482 278.904C389.826 266.505 403.556 258.574 419.142 256.573C434.729 254.572 450.307 258.74 463.006 268.31C475.706 277.88 484.007 291.705 486.38 307.24C488.752 322.774 484.913 338.158 475.57 350.557C466.226 362.957 452.496 370.888 436.91 372.889Z" fill="#CA2000"/>
<path id="Vector 17" d="M386.821 283.681C403.538 261.497 435.622 257.379 458.342 274.499C466.537 280.675 472.688 288.982 476.129 298.524C476.498 299.547 477.626 300.098 478.648 299.755C479.67 299.412 480.199 298.304 479.83 297.28C476.123 287.002 469.499 278.055 460.674 271.405C448.822 262.473 434.282 258.583 419.735 260.45C405.187 262.318 392.373 269.719 383.652 281.292C375.606 291.969 371.889 305.25 373.185 318.689C373.24 319.266 373.543 319.767 373.978 320.095C374.354 320.378 374.83 320.533 375.331 320.496C376.413 320.418 377.206 319.481 377.102 318.405C375.899 305.927 379.35 293.595 386.821 283.681Z" fill="#CA2000"/>
<path id="Vector 18" d="M483.066 318.466C483.114 317.388 482.273 316.456 481.188 316.384C480.102 316.311 479.183 317.125 479.135 318.202C478.685 328.243 475.26 337.779 469.231 345.781C452.514 367.964 420.43 372.083 397.709 354.962C388.283 347.859 381.471 337.728 378.528 326.436C378.254 325.386 377.179 324.735 376.128 324.983C375.076 325.231 374.446 326.284 374.72 327.334C377.89 339.496 385.226 350.407 395.377 358.057C407.23 366.988 421.77 370.879 436.317 369.011C450.865 367.144 463.679 359.742 472.4 348.169C478.893 339.553 482.581 329.281 483.066 318.466Z" fill="#CA2000"/>
<path id="Vector 19" d="M478.092 305.441C478.456 307.174 478.733 308.945 478.914 310.702C478.974 311.275 479.275 311.77 479.706 312.095C480.086 312.381 480.567 312.536 481.073 312.495C482.154 312.409 482.94 311.467 482.829 310.391C482.633 308.5 482.335 306.594 481.944 304.727C481.721 303.666 480.678 302.965 479.615 303.162C478.551 303.359 477.869 304.379 478.092 305.441Z" fill="#CA2000"/>
<path id="Vector 20" d="M450.18 285.331C451.055 285.99 452.287 285.832 452.931 284.978L456.429 280.336C457.073 279.481 456.886 278.254 456.01 277.594C455.135 276.935 453.903 277.093 453.26 277.947L449.761 282.589C449.118 283.444 449.305 284.671 450.18 285.331Z" fill="#CA2000"/>
<path id="Vector 21" d="M403.121 344.484L399.623 349.126C398.979 349.98 399.166 351.208 400.042 351.867C400.917 352.527 402.148 352.369 402.792 351.514L406.29 346.872C406.934 346.017 406.747 344.79 405.872 344.13C404.996 343.471 403.765 343.629 403.121 344.484Z" fill="#CA2000"/>
<path id="Vector 22" d="M397.915 292.04C398.559 291.186 398.371 289.958 397.496 289.299L392.742 285.716C391.867 285.057 390.635 285.215 389.991 286.069C389.347 286.924 389.534 288.151 390.41 288.811L395.164 292.393C396.039 293.053 397.271 292.895 397.915 292.04Z" fill="#CA2000"/>
<path id="Vector 23" d="M458.137 337.421C457.493 338.275 457.681 339.503 458.556 340.163L463.31 343.745C464.185 344.405 465.417 344.247 466.061 343.392C466.705 342.538 466.517 341.31 465.642 340.651L460.888 337.068C460.013 336.408 458.781 336.566 458.137 337.421Z" fill="#CA2000"/>
<path id="Vector 24" d="M434.329 276.248L434.982 270.436C435.102 269.366 434.323 268.383 433.244 268.239C432.164 268.095 431.191 268.846 431.071 269.915L430.419 275.727C430.338 276.444 430.662 277.123 431.209 277.536C431.478 277.739 431.801 277.877 432.157 277.925C433.237 278.068 434.209 277.318 434.329 276.248Z" fill="#CA2000"/>
<path id="Vector 25" d="M425.633 353.734C425.753 352.665 424.975 351.681 423.895 351.537C422.815 351.393 421.842 352.144 421.722 353.213L421.07 359.025C420.99 359.743 421.313 360.421 421.861 360.834C422.13 361.037 422.453 361.175 422.808 361.223C423.888 361.367 424.861 360.616 424.981 359.546L425.633 353.734Z" fill="#CA2000"/>
<path id="Vector 26" d="M381.885 310.287C382.154 310.489 382.477 310.628 382.833 310.675L388.699 311.457C389.779 311.601 390.752 310.85 390.872 309.78C390.992 308.71 390.213 307.727 389.134 307.583L383.267 306.801C382.188 306.657 381.215 307.408 381.095 308.478C381.014 309.195 381.338 309.874 381.885 310.287Z" fill="#CA2000"/>
<path id="Vector 27" d="M465.971 321.49C466.24 321.693 466.563 321.831 466.918 321.879L472.785 322.661C473.864 322.804 474.837 322.054 474.957 320.984C475.077 319.914 474.299 318.931 473.219 318.786L467.353 318.005C466.273 317.861 465.3 318.611 465.18 319.681C465.1 320.399 465.423 321.078 465.971 321.49Z" fill="#CA2000"/>
<path id="Vector 28" d="M471.279 296.9C470.843 295.902 469.682 295.425 468.687 295.835L463.28 298.064C462.285 298.474 461.832 299.616 462.268 300.615C462.411 300.944 462.633 301.216 462.902 301.418C463.45 301.831 464.192 301.955 464.859 301.68L470.266 299.451C471.261 299.041 471.715 297.899 471.279 296.9Z" fill="#CA2000"/>
<path id="Vector 29" d="M393.784 328.846C393.348 327.848 392.188 327.371 391.193 327.781L385.786 330.01C384.791 330.421 384.337 331.563 384.773 332.561C384.917 332.89 385.139 333.162 385.408 333.365C385.956 333.778 386.697 333.901 387.365 333.626L392.772 331.397C393.767 330.987 394.22 329.845 393.784 328.846Z" fill="#CA2000"/>
<path id="Vector 30" d="M442.013 351.632L444.381 357.056C444.525 357.384 444.747 357.656 445.016 357.859C445.564 358.272 446.306 358.396 446.973 358.121C447.968 357.71 448.422 356.568 447.986 355.57L445.618 350.146C445.182 349.147 444.021 348.671 443.026 349.081C442.03 349.491 441.577 350.633 442.013 351.632Z" fill="#CA2000"/>
<path id="Vector 31" d="M414.039 277.83L411.67 272.406C411.235 271.407 410.074 270.931 409.079 271.341C408.084 271.751 407.63 272.893 408.066 273.892L410.435 279.315C410.578 279.644 410.8 279.916 411.069 280.119C411.617 280.532 412.359 280.656 413.026 280.381C414.021 279.97 414.475 278.828 414.039 277.83Z" fill="#CA2000"/>
<path id="Vector 32" d="M423.835 343.247C424.103 343.45 424.426 343.588 424.782 343.636C425.862 343.78 426.835 343.029 426.955 341.959L429.367 320.466C430.69 320.19 431.914 319.463 432.78 318.313C434.3 316.296 434.271 313.578 432.908 311.549L448.267 291.167C448.911 290.313 448.723 289.085 447.848 288.426C446.973 287.766 445.741 287.924 445.097 288.779L429.739 309.161C427.413 308.409 424.792 309.131 423.272 311.148C421.343 313.708 421.906 317.397 424.528 319.373C424.824 319.596 425.136 319.787 425.456 319.948L423.044 341.438C422.963 342.156 423.287 342.835 423.835 343.247ZM426.441 313.536C427.084 312.683 428.318 312.525 429.192 313.183C430.066 313.842 430.254 315.072 429.611 315.925C428.968 316.778 427.734 316.936 426.86 316.278C425.986 315.62 425.798 314.39 426.441 313.536Z" fill="#CA2000"/>
</g>
</g>
<g id="sup">
<path id="Vector 33" d="M21.6422 299.677L53.3382 275.793C53.7582 275.476 54.0382 275.009 54.1172 274.495C54.1952 273.981 54.0662 273.461 53.7562 273.051C53.4472 272.641 52.9842 272.373 52.4682 272.307C51.9522 272.241 51.4262 272.381 51.0062 272.698L19.3102 296.583C18.8902 296.899 18.6092 297.366 18.5312 297.88C18.4522 298.394 18.5822 298.914 18.8912 299.324C19.2002 299.734 19.6642 300.002 20.1802 300.068C20.6962 300.135 21.2222 299.994 21.6422 299.677Z" fill="#CA2000"/>
<path id="Vector 34" d="M115.713 276.135L111.886 271.056C112.057 270.246 112.055 269.413 111.879 268.611C111.704 267.81 111.358 267.058 110.867 266.406L108.535 263.311C107.606 262.081 106.215 261.279 104.668 261.081C103.121 260.882 101.544 261.303 100.282 262.252L84.4342 274.194C83.1752 275.145 82.3352 276.545 82.1002 278.087C81.8642 279.629 82.2522 281.187 83.1782 282.419L85.5102 285.513C86.0012 286.166 86.6292 286.705 87.3512 287.095C88.0732 287.485 88.8732 287.717 89.6992 287.775L93.5262 292.854C92.2762 294.719 91.3862 296.793 90.9032 298.968L65.3132 262.011C65.2992 261.992 65.2842 261.97 65.2692 261.95L60.6052 255.761C60.2952 255.35 59.8322 255.082 59.3162 255.016C58.8002 254.95 58.2742 255.091 57.8542 255.407L0.801213 298.4C0.381213 298.716 0.101221 299.183 0.0222212 299.697C-0.0557788 300.211 0.0732137 300.731 0.383214 301.141L5.04721 307.331C5.06121 307.35 5.07721 307.371 5.09421 307.39L67.7302 383.917C67.9862 384.229 68.3352 384.452 68.7302 384.555C69.1242 384.657 69.5442 384.634 69.9302 384.488C70.7302 384.186 89.6762 376.988 100.873 368.551C110.16 361.553 117.994 350.794 120.664 346.915C122.291 347.707 124.118 348.027 125.941 347.841C127.764 347.655 129.51 346.969 130.985 345.86L156.341 326.753C158.44 325.167 159.84 322.834 160.232 320.264C160.625 317.694 159.978 315.098 158.435 313.045L135.115 282.098C132.942 279.222 129.91 277.105 126.437 276.037C122.963 274.97 119.218 275.004 115.713 276.135ZM86.3472 280.03C86.0392 279.62 85.9092 279.1 85.9882 278.586C86.0672 278.072 86.3462 277.606 86.7662 277.289L102.614 265.346C103.035 265.03 103.56 264.89 104.076 264.956C104.592 265.022 105.055 265.29 105.365 265.7L107.697 268.794C108.006 269.205 108.135 269.724 108.056 270.238C107.978 270.752 107.698 271.219 107.278 271.536L91.4302 283.478C91.0102 283.794 90.4842 283.935 89.9682 283.868C89.4532 283.802 88.9892 283.535 88.6792 283.125L86.3472 280.03ZM93.7622 286.573L109.61 274.631L112.009 277.813C111.439 278.152 110.888 278.521 110.357 278.919L97.6792 288.473C97.1502 288.873 96.6432 289.301 96.1612 289.756L93.7622 286.573ZM119.234 340.159L99.4122 313.854L134.277 287.581L154.099 313.886L119.234 340.159ZM98.5412 365.456C89.4542 372.304 74.4212 378.535 69.9182 380.325L10.6742 307.942L15.3032 304.454C15.7232 304.137 16.0032 303.671 16.0822 303.156C16.1602 302.642 16.0312 302.123 15.7212 301.713C15.4122 301.302 14.9492 301.034 14.4332 300.968C13.9172 300.902 13.3912 301.043 12.9712 301.359L8.21723 304.941L8.19422 304.912L4.7182 300.3L58.6012 259.696L62.0762 264.308L62.0982 264.339L57.3452 267.921C56.9252 268.238 56.6442 268.705 56.5662 269.219C56.4872 269.733 56.6172 270.252 56.9262 270.663C57.2352 271.073 57.6992 271.341 58.2152 271.407C58.7312 271.473 59.2572 271.333 59.6772 271.016L64.3062 267.528L90.7092 305.657C91.1562 308.385 92.2542 310.952 93.9102 313.148L117.23 344.095C117.344 344.245 117.462 344.39 117.582 344.532C115.201 347.996 107.44 358.751 98.5412 365.456ZM154.009 323.658L128.652 342.766C127.669 343.505 126.486 343.929 125.266 343.98C124.046 344.03 122.849 343.705 121.839 343.048L156.159 317.186C156.512 318.338 156.494 319.578 156.11 320.737C155.725 321.896 154.991 322.916 154.009 323.658ZM97.0802 310.759C94.9192 307.885 94.0142 304.25 94.5642 300.652C95.1132 297.055 97.0722 293.788 100.011 291.568L112.689 282.014C115.633 279.801 119.314 278.818 122.923 279.282C126.533 279.745 129.778 281.617 131.945 284.486L97.0802 310.759Z" fill="#CA2000"/>
<path id="Vector 35" d="M130.599 302.483L124.259 307.26C124.168 307.329 124.08 307.4 123.993 307.473L123.987 307.465C123.295 306.547 122.34 305.86 121.243 305.49C120.145 305.12 118.954 305.085 117.821 305.388C116.687 305.691 115.662 306.32 114.875 307.194C114.087 308.068 113.573 309.148 113.397 310.298L112.805 314.174L112.213 318.05C111.977 319.592 112.366 321.151 113.293 322.382C114.22 323.614 115.611 324.417 117.159 324.616C118.706 324.816 120.284 324.394 121.546 323.444C122.807 322.494 123.648 321.094 123.884 319.551L124.313 316.741C125.327 317.44 126.544 317.796 127.791 317.761C129.038 317.726 130.25 317.3 131.255 316.544L137.595 311.767C138.856 310.817 139.696 309.417 139.932 307.874C140.168 306.332 139.779 304.773 138.851 303.542C137.923 302.311 136.533 301.508 134.985 301.309C133.437 301.111 131.859 301.533 130.599 302.483ZM117.288 310.798C117.324 310.541 117.411 310.293 117.544 310.067C117.677 309.842 117.853 309.644 118.061 309.485C118.27 309.326 118.508 309.209 118.76 309.14C119.013 309.072 119.275 309.054 119.532 309.087C119.79 309.12 120.037 309.204 120.259 309.333C120.481 309.462 120.675 309.635 120.828 309.84C120.981 310.046 121.09 310.28 121.151 310.53C121.211 310.78 121.22 311.041 121.178 311.297L120.882 313.236L116.992 312.736L117.288 310.798ZM117.753 320.74C117.237 320.674 116.774 320.406 116.465 319.995C116.156 319.585 116.026 319.066 116.104 318.552L116.4 316.614L120.29 317.113L119.994 319.051C119.915 319.565 119.634 320.032 119.214 320.348C118.794 320.665 118.268 320.806 117.753 320.74ZM126.173 313.096C125.864 312.686 125.735 312.166 125.813 311.652C125.892 311.138 126.172 310.672 126.591 310.355L128.176 309.16L130.508 312.255L128.923 313.449C128.503 313.765 127.977 313.906 127.461 313.84C126.946 313.773 126.482 313.506 126.173 313.096ZM135.263 308.672L133.678 309.867L131.346 306.772L132.931 305.578C133.351 305.261 133.877 305.12 134.393 305.186C134.909 305.253 135.372 305.52 135.681 305.931C135.991 306.341 136.12 306.861 136.042 307.375C135.963 307.889 135.683 308.356 135.263 308.672Z" fill="#CA2000"/>
<path id="Vector 36" d="M135.172 318.444L128.833 323.221C128.413 323.538 128.133 324.005 128.054 324.519C127.975 325.033 128.105 325.553 128.414 325.963C128.724 326.373 129.187 326.641 129.703 326.707C130.219 326.774 130.745 326.633 131.165 326.316L137.504 321.539C137.925 321.222 138.205 320.756 138.283 320.242C138.362 319.727 138.232 319.208 137.923 318.798C137.614 318.387 137.15 318.119 136.634 318.053C136.119 317.987 135.593 318.128 135.172 318.444Z" fill="#CA2000"/>
<path id="Vector 37" d="M85.3872 341.404C85.8072 341.088 86.0872 340.621 86.1662 340.107C86.2442 339.593 86.1152 339.073 85.8062 338.663C85.4962 338.252 85.0332 337.985 84.5172 337.919C84.0012 337.852 83.4752 337.993 83.0552 338.31L76.7162 343.087C76.2952 343.403 76.0152 343.87 75.9362 344.384C75.8582 344.898 75.9882 345.418 76.2972 345.828C76.6062 346.239 77.0702 346.506 77.5852 346.573C78.1012 346.639 78.6272 346.498 79.0482 346.181L85.3872 341.404Z" fill="#CA2000"/>
<path id="Vector 38" d="M94.0582 339.722L75.0402 354.053C74.6202 354.37 74.3402 354.837 74.2612 355.351C74.1832 355.865 74.3122 356.384 74.6222 356.795C74.9312 357.205 75.3952 357.473 75.9102 357.539C76.4262 357.605 76.9522 357.464 77.3732 357.148L96.3902 342.817C96.8102 342.5 97.0912 342.033 97.1692 341.519C97.2482 341.005 97.1182 340.486 96.8092 340.075C96.5002 339.665 96.0362 339.397 95.5202 339.331C95.0042 339.265 94.4782 339.406 94.0582 339.722Z" fill="#CA2000"/>
<path id="Vector 39" d="M57.1692 292.697C56.3052 292.47 55.3952 292.446 54.5102 292.626C53.6252 292.806 52.7892 293.184 52.0662 293.733L47.2372 297.372C45.9762 298.322 45.1352 299.723 44.8992 301.265C44.6642 302.808 45.0532 304.366 45.9802 305.597C46.9082 306.828 48.2992 307.631 49.8462 307.83C51.3942 308.029 52.9722 307.607 54.2332 306.656L57.6082 304.113C60.4972 307.142 63.9762 311.867 63.6302 314.75C62.2202 315.399 60.8832 316.198 59.6442 317.135C56.3262 319.635 53.9172 322.94 52.8132 326.296C51.1032 326.534 49.4762 327.213 48.0942 328.265C46.7122 329.316 45.6242 330.703 44.9382 332.287C44.2522 333.871 43.9922 335.596 44.1852 337.291C44.3782 338.986 45.0172 340.591 46.0372 341.945C47.0572 343.299 48.4242 344.355 50.0002 345.007C51.5762 345.66 53.3062 345.886 55.0172 345.663C56.7292 345.44 58.3622 344.777 59.7542 343.738C61.1452 342.699 62.2472 341.322 62.9472 339.744C66.4782 339.608 70.3182 338.203 73.6362 335.703C76.9542 333.203 79.3632 329.898 80.4672 326.542C82.1622 326.306 83.7762 325.637 85.1502 324.601L85.2172 324.55C86.2672 323.747 87.1462 322.742 87.8002 321.599C88.4542 320.455 88.8692 319.196 89.0202 317.899C89.3422 315.294 88.6352 312.69 87.0482 310.638C78.2142 299.138 63.2102 294.26 57.1692 292.697ZM85.1142 317.513C84.9842 318.61 84.5402 319.654 83.8362 320.521C83.1312 321.388 82.1952 322.041 81.1392 322.403C81.1352 322.146 81.1262 321.891 81.1032 321.638C81.0812 321.383 81.0092 321.136 80.8902 320.911C80.7712 320.686 80.6082 320.487 80.4102 320.326C80.2132 320.165 79.9842 320.045 79.7382 319.973C79.4922 319.901 79.2332 319.879 78.9752 319.906C78.7182 319.934 78.4672 320.012 78.2382 320.135C78.0082 320.258 77.8042 320.425 77.6382 320.625C77.4712 320.825 77.3462 321.055 77.2672 321.301C77.1892 321.547 77.1602 321.806 77.1822 322.061C77.4832 325.55 75.1762 329.691 71.3042 332.608C67.4322 335.526 62.8172 336.603 59.5452 335.351C59.3062 335.26 59.0502 335.216 58.7912 335.224C58.5332 335.231 58.2772 335.289 58.0392 335.394C57.8012 335.498 57.5852 335.648 57.4032 335.835C57.2212 336.022 57.0782 336.241 56.9802 336.481C56.8822 336.721 56.8332 336.976 56.8342 337.233C56.8362 337.489 56.8882 337.742 56.9882 337.976C57.0882 338.211 57.2342 338.422 57.4182 338.598C57.6012 338.775 57.8192 338.912 58.0582 339.004C58.2952 339.094 58.5362 339.174 58.7812 339.248C58.2412 340.018 57.5272 340.654 56.6992 341.104C55.8712 341.553 54.9522 341.803 54.0172 341.833C53.0822 341.863 52.1592 341.672 51.3232 341.276C50.4862 340.88 49.7622 340.29 49.2082 339.555C48.6542 338.82 48.2862 337.96 48.1362 337.048C47.9862 336.135 48.0572 335.194 48.3432 334.304C48.6302 333.414 49.1242 332.599 49.7842 331.927C50.4442 331.255 51.2522 330.744 52.1412 330.437C52.1452 330.693 52.1552 330.947 52.1772 331.199C52.2212 331.714 52.4712 332.186 52.8702 332.511C53.2692 332.836 53.7852 332.987 54.3052 332.931C54.8252 332.875 55.3062 332.617 55.6422 332.213C55.9782 331.808 56.1422 331.292 56.0982 330.777C55.7972 327.287 58.1042 323.147 61.9762 320.229C64.0112 318.656 66.3932 317.596 68.9112 317.141C69.4282 317.056 69.8942 316.771 70.2072 316.35C70.5202 315.928 70.6552 315.403 70.5812 314.892C70.5072 314.381 70.2312 313.924 69.8142 313.622C69.3962 313.321 68.8722 313.199 68.3552 313.284C68.0832 313.329 67.8092 313.384 67.5382 313.442C66.8992 307.529 60.0512 300.903 59.1922 300.094C58.8582 299.779 58.4202 299.595 57.9562 299.574C57.4912 299.553 57.0302 299.696 56.6552 299.979L51.9012 303.562C51.4802 303.878 50.9542 304.019 50.4392 303.953C49.9232 303.887 49.4592 303.619 49.1502 303.209C48.8412 302.798 48.7112 302.279 48.7902 301.765C48.8682 301.25 49.1482 300.784 49.5692 300.467L54.3982 296.828C54.6382 296.645 54.9162 296.519 55.2112 296.459C55.5052 296.399 55.8082 296.406 56.0962 296.481C60.5092 297.624 75.5572 302.194 83.8992 313.054C84.8752 314.314 85.3112 315.913 85.1142 317.513Z" fill="#CA2000"/>
</g>
</g>
</g>
</svg>
